<?xml version="1.0" standalone="no"?>
<!DOCTYPE svg PUBLIC "-//W3C//DTD SVG 1.1//EN" "http://www.w3.org/Graphics/SVG/1.1/DTD/svg11.dtd" >
<svg xmlns="http://www.w3.org/2000/svg" xmlns:xlink="http://www.w3.org/1999/xlink" version="1.1">
<metadata>
Created by FontForge 20200511 at Sun Oct 15 19:05:38 2017
 By convertio
MediaLabCo (c) 2017
</metadata>
<defs>
<font id="Virtual-Regular" horiz-adv-x="197" >
  <font-face 
    font-family="Virtual"
    font-weight="400"
    font-stretch="normal"
    units-per-em="1000"
    panose-1="0 0 5 0 0 0 0 0 0 0"
    ascent="800"
    descent="-200"
    x-height="329"
    cap-height="710"
    bbox="-337.333 -220 922.9 800"
    underline-thickness="50"
    underline-position="-100"
    unicode-range="U+0020-E009"
  />
<missing-glyph horiz-adv-x="500" 
d="M410 800v-1000h-317v1000h317zM333 733h-165v-33h65v-37h-66v-33h166v33h-66v37h66v33zM267 604h-100v-104h166v34h-66v70zM233 570v-36h-33v36h33zM333 473h-166v-33h66v-37h-66v-33h100v70h66v33zM333 413h-33v-66h-133v-34h166v100zM333 291h-100v-56h34v23h33v-47
h-100v80h-33v-113h166v113zM333 118h-166v-113h166v113zM300 85v-47h-100v47h100zM333 -18h-166v-33h70l-70 -47v-33h166v33h-102l70 47h32v33z" />
    <glyph glyph-name=".notdef" horiz-adv-x="500" 
d="M410 800v-1000h-317v1000h317zM333 733h-165v-33h65v-37h-66v-33h166v33h-66v37h66v33zM267 604h-100v-104h166v34h-66v70zM233 570v-36h-33v36h33zM333 473h-166v-33h66v-37h-66v-33h100v70h66v33zM333 413h-33v-66h-133v-34h166v100zM333 291h-100v-56h34v23h33v-47
h-100v80h-33v-113h166v113zM333 118h-166v-113h166v113zM300 85v-47h-100v47h100zM333 -18h-166v-33h70l-70 -47v-33h166v33h-102l70 47h32v33z" />
    <glyph glyph-name="space" unicode=" " horiz-adv-x="200" 
 />
    <glyph glyph-name="A" unicode="A" horiz-adv-x="442" 
d="M296 -65q-31 0 -47 28q-8 15 -10 41v16h-1l8 80q2 24 10 72q5 27 17 81l4 20v2q0 3 -2 5.5t-5 2.5q-29 4 -85 20h-2q-6 0 -9 -6l-3 -7q-14 -31 -31 -73l-22 -52q-14 -32 -31 -69q-12 -20 -19 -29q-12 -13 -27 -20q-8 -3 -14 -3q-13 0 -23 10q-2 1 -4 5q0 4 1 5l4 2l9 -2
q2 -1 6 -1q5 0 9 4q9 7 16 20q10 18 14 27l26 66l39 98q4 8 10 24q2 6 2 7q0 8 -12 9q-11 1 -33 1q-7 0 -21 -6q-11 -5 -12 -16q0 -2 -2 -6q-1 -3 -6 -3q-1 0 -3 1t-3 2q-7 8 -7 18q0 9 7 15q9 8 21 11q20 4 30 4q8 0 12 -1q11 -3 19.5 -4t13.5 -2q5 0 8 4l4 9q3 5 7 17
q30 77 98 185q27 42 62 80q9 10 29 28q3 3 6 4.5t5 3.5q8 4 13 4q8 0 18 -7q14 -11 15 -28q1 -5 1 -16q0 -13 -3 -28q-12 -60 -32 -137l-33 -123q-2 -7 -4 -19v-2q0 -6 8 -6q18 0 50.5 4t40.5 11l9 8q6 6 13 6t15 -8q3 -3 2 -9q-6 -14 -20 -22q-16 -9 -38 -11q-71 0 -81 -1
q-6 0 -9 -6l-3 -11q-22 -87 -29 -141q-8 -61 -11 -86q-2 -16 -2 -25q0 -18 4 -31q3 -12 9 -21q2 -3 6 -3.5t7 1.5l6 7q3 4 7 12q6 10 18 7q2 0 3.5 -2.5t1.5 -4.5q-2 -18 -13 -29q-7 -7 -12 -8q-10 -3 -20 -3zM275 303q6 0 9 2t4 8l9 32l56 187q4 15 23 79l3 16v7q-1 1 -3 2
t-3 0q-9 -5 -22 -20q-32 -34 -58 -78q-63 -102 -97 -187q-3 -8 -6 -15.5t-3 -9.5q0 -4 5.5 -6t12 -4t10.5 -3q33 -9 55 -10h5z" />
    <glyph glyph-name="B" unicode="B" horiz-adv-x="330" 
d="M356 311.5q0 -2.5 -1 -3.5l-6 -3l-82 -21q-8 -2 -11 -2l12 -28q14 -44 14 -85q0 -17 -1 -26q0 -8 -4 -28q-8 -33 -26 -70q-10 -21 -26 -42q-23 -28 -55 -38q-29 -9 -58 -9q-49 0 -79 40q-33 42 -33 92q0 20 4 36q4 20 17 36q11 17 26 31q2 188 5 308q0 25 1 38q0 7 4 23
q1 7 11 7q18 -3 19 -20q1 -4 1 -12q0 -15 2 -45q0 -9 1.5 -33t0.5 -44l1 -14q0 -1 1 -2t2 -1t2 1t1 2l6 13l31 83q17 45 55 102q14 18 22 27q8 8 13 10q13 8 25 8q13 0 28 -10q9 -8 11 -20v-9q0 -8 -2 -24q-11 -51 -38 -103q-30 -61 -71 -108l-8 -9q-2 -4 -2 -5q0 -4 7 -7
l4 -1q38 -10 65 -48l3 -3q10 4 71 20q4 1 9 2t12 1q6 0 9 -1q2 0 6 -2q1 -1 1 -3.5zM110 348.5q1 -1.5 2 -1.5q4 0 5 1l19 23q40 51 82 132q23 48 33 85q4 16 4 25v5q0 2 -2 3t-4 0l-4 -2t-4 -3q-14 -10 -26 -27q-34 -47 -52 -89q-22 -50 -47 -125l-5 -16l-1 -7
q-1 -2 0 -3.5zM92 226q55 34 125 58l-4 8q-8 15 -18 27q-15 16 -33 15q-3 0 -9.5 -1t-11.5 -3q-3 -2 -10 -2q-5 0 -8 1q-2 0 -11 3q-2 1 -4.5 -0.5t-3.5 -3.5q-10 -36 -11 -55zM239 178q-3 37 -5 47q-3 25 -12 49q-30 -9 -65 -26.5t-65 -41.5v-32l-5 -50q-2 -10 -7 -14
t-16 -4l-9 1q-6 1 -8 8q0 11 -1 17v7v16q-13 -19 -19 -47q-1 -5 -1 -16q0 -47 30 -86q21 -26 49 -34q6 -2 16 -2q45 6 67 40q15 24 23 43q16 41 22 70q7 29 6 55z" />
    <glyph glyph-name="C" unicode="C" horiz-adv-x="361" 
d="M108 -18q-20 0 -40 6q-24 7 -37 28q-3 6 -13 27q-18 47 -18 105q0 14 2 44q1 9 2.5 31.5t4.5 40.5q19 125 73 228q29 57 79 95q17 12 36 21q22 9 47 9q16 0 36 -5q12 -4 18 -7q21 -10 32 -28.5t11 -39.5q0 -10 -1 -15q-13 -75 -77 -123q-24 -17 -51 -16q-11 0 -27 7
q-2 2 -2 4l3 3h5q3 -1 8 -1q12 0 30 9q2 2 6 4q69 53 77 130q2 21 -9 41q-8 14 -22 15l-13 1q-22 0 -42 -9q-18 -9 -34 -22q-42 -34 -72 -92q-32 -60 -51 -138q-16 -68 -21 -135q0 -15 -2 -23q-1 -9 -1 -28q0 -48 14 -93q6 -18 10 -27q5 -10 12 -17q11 -15 32 -15
q20 0 39 11q17 10 39 30q22 21 80 109.5t69 116.5q5 11 9 20.5t8 17.5q3 6 7 10q2 2 6 2q9 0 10 -6q1 -1 1 -4l-4 -11l-20 -45q-19 -38 -63 -107.5t-68 -96.5q-22 -26 -47 -43q-24 -14 -39 -16q-17 -3 -32 -3z" />
    <glyph glyph-name="D" unicode="D" horiz-adv-x="412" 
d="M446 311.5q0 -2.5 -1 -3.5l-6 -3q-7 -1 -41 -3l-39 -3v-2q-17 -87 -63 -174q-33 -61 -80 -97q-47 -35 -106 -35q-57 0 -89 51q-22 32 -22 71q0 14 3 27q14 53 68 91q17 116 31 193q2 13 10 46q12 44 16 71l3 13q1 3 4 4.5t5 0.5q9 -3 12 -11q4 -16 4 -25q0 -7 -1 -10
q-4 -40 -8 -60q-13 -69 -17 -95q-3 -15 -5.5 -32.5t-4.5 -32.5l-2 -18t-3 -19l28 12q24 80 40 125q23 72 60 143q11 24 29 48q10 13 19 21q4 6 11 9q7 4 15 4t12 -2q24 -9 38 -33q8 -18 11 -33q1 -8 3.5 -25.5t1.5 -31.5l-6 -84q-5 -37 -14 -98l23 2l24 2q4 1 9 2t12 1
q6 0 9 -1q2 0 6 -2q1 -1 1 -3.5zM168 277q67 20 146 29q12 49 21 129q1 7 4 33.5t2 51.5v23q0 14 -6 40l-5 11q-1 2 -4.5 3t-5.5 -1l-4 -2t-4 -3q-16 -12 -27 -29q-18 -23 -35 -59q-36 -75 -55 -135q-12 -36 -27 -91zM311 294q-90 -13 -148 -34l-8 -25q-6 -17 -13 -43
l-20 -67q-2 -7 -6 -15.5t-6 -12.5q-4 -8 -14 -8h-5q-7 0 -11 1q-11 1 -15 14q-2 8 -2 13q-2 22 -2 31l1 21l4 33q-28 -28 -38 -65q-3 -12 -3 -24q0 -24 10.5 -47t27.5 -39q22 -20 46 -20q12 0 23 4q34 11 58 35q37 35 59 78q44 86 62 170zM122 241.5q-6 -3.5 -11 -5.5l-1 -7
l-6 -42v-11l1 -5l1 -1q4 0 4 1q6 13 14 39l12 39q-8 -4 -14 -7.5z" />
    <glyph glyph-name="E" unicode="E" horiz-adv-x="331" 
d="M78 36q-19 0 -39 11q-32 18 -37 54q-2 11 -2 33q2 36 10 65q14 51 43 104q30 50 76 89l4 2t4 3q7 7 0 11l-10 5q-37 21 -37 69q0 15 5 33q6 21 24 48q23 36 66 62q28 17 58 17q33 -2 53 -10l8 -4q13 -7 20 -19.5t7 -26.5q0 -19 -11 -33q-4 -6 -12 -6q-5 0 -8 2t-2 6
q0 3 2 7l5 15q2 8 2 11q0 9 -8 25q-7 10 -15 11q-4 1 -11 1q-13 0 -28 -5q-16 -5 -33 -19q-45 -35 -66 -84q-10 -21 -11 -41l-1 -10q0 -12 7 -28q5 -10 15 -10h13q13 0 20 2q9 3 18 3q9 -2 13 -5q4 -2 4.5 -6t-3.5 -5q-14 -6 -27 -17t-17 -14q-21 -18 -35 -36l-25 -33
q-53 -76 -68 -164q-2 -14 -2 -22q0 -16 5 -36q5 -22 18 -32q10 -8 20 -4q69 19 135.5 89t107.5 157q2 5 5 8q2 2 7.5 2t7.5 -2l2 -4q0 -4 -1 -5l-9 -19q-50 -97 -115 -157t-121 -82q-15 -6 -31 -6z" />
    <glyph glyph-name="F" unicode="F" horiz-adv-x="331" 
d="M4 50q-4 24 -4 36q0 23 7 53q21 81 86 149q40 44 96 70q14 7 16.5 10.5t5.5 16.5l8 30q16 66 26 98q10 33 24 66q2 3 4 11q1 1 -0.5 3t-2.5 2q-4 2 -6 2l-43 1q-14 1 -42 1q-49 -2 -90 -17q-20 -8 -29 -14q-10 -6 -21 -19q-5 -8 -5 -16q0 -4 3 -7t6 -5q1 -1 1 -4
q1 -1 0 -1.5l-1 -0.5q-14 -1 -24 8t-10 22q0 4 2 10q6 14 18 25q11 8 28 17q32 15 72 20q31 5 63 3h15q14 -1 35 -1l37 1q14 1 22 12q3 6 20 27q21 26 52 39q28 13 66 22q13 3 26 3q10 0 26 -2q24 -4 43 -23q7 -9 7 -17q0 -11 -9 -19q-7 -7 -14 -11q-11 -7 -23 -12
q-71 -30 -132 -35l-28 -4q-6 0 -11 -7q-15 -25 -24 -54q-9 -27 -22 -72l-15 -59l-2 -14q0 -2 1.5 -3.5t2.5 -0.5q4 0 10 2l21 7l32 11q2 1 6 1q6 0 12 -3q3 -1 5 -4t1 -5q-2 -4 -7 -6l-76 -24q-18 -4 -21 -23q-7 -33 -22 -88q-2 -11 -11 -44q-13 -50 -51 -121
q-11 -21 -43 -59l-10 -9q-21 -18 -45 -18q-15 0 -34 8q-21 8 -28 35zM358 628q68 11 127 39q6 2 20 12q4 2 8 9q1 1 1 3q0 5 -5 7h-2q-14 2 -22 2q-16 0 -29 -4q-35 -11 -49 -17q-21 -8 -35 -22q-15 -13 -20 -23q-2 -2 0 -4l4 -2h2zM82 40q26 27 38 51q42 82 56 141
q6 30 20 90q1 3 1 9q0 2 -1.5 3t-3.5 1q-5 -2 -11 -4q-37 -20 -71 -58q-57 -58 -76 -135q-7 -25 -8 -51q0 -9 6 -33q3 -16 17 -27q3 -3 8 -3q13 0 25 16z" />
    <glyph glyph-name="G" unicode="G" horiz-adv-x="337" 
d="M365 311.5q0 -2.5 -1 -3.5l-6 -3q-50 -13 -92 -30l-45 -141q-12 -33 -29 -77q-17 -45 -47 -87q-15 -20 -35 -35q-23 -19 -57 -19q-24 0 -38 20q-9 12 -12 25t-3 32q0 29 11 59q12 28 22 49q32 50 81 95t107 76l18 57q7 24 23 72l5 18q0 2 -2 2t-2 -1q-5 -3 -8 -8
q-28 -34 -41 -52q-28 -36 -74 -75q-25 -24 -61 -24q-16 0 -36 5q-31 9 -38 40q-3 15 -4 32.5t-1 22.5q0 69 32 143q24 58 55 103q22 35 56 67q27 27 62 42q15 7 33 7q26 0 51 -17q21 -13 21 -38l-1 -9q-5 -27 -16 -42q-6 -8 -16 -5q-4 1 -5.5 4t-0.5 7l9 24q6 13 4 30
q0 1 -3 13q-5 10 -15 11h-6q-10 0 -17 -4l-22 -12q-29 -20 -49 -44q-39 -44 -72 -107q-32 -59 -47 -120q-7 -40 -7 -71l1 -23q0 -14 7 -32q4 -8 15 -10q11 0 23 5q16 7 26 16q49 38 76 73q14 18 28 34q9 11 28.5 36t33.5 45q13 16 21 31q5 11 13 11q4 0 10 -3l4 -3
q5 -3 5 -10q0 -4 -1 -7q-10 -44 -16 -66l-46 -143q27 10 54 18q4 1 9 2t12 1q6 0 9 -1q2 0 6 -2q1 -1 1 -3.5zM214 249q-47 -26 -75 -53t-42.5 -45.5t-18.5 -23.5q-35 -46 -47 -99q-5 -18 -3 -44q0 -20 13 -38q5 -6 11 -11q9 -6 18 -2q4 2 14 9q16 15 26 30q25 38 43 86
q15 42 34 103z" />
    <glyph glyph-name="H" unicode="H" horiz-adv-x="396" 
d="M435 673q0 -1 -2 -7q-21 -47 -37 -96.5t-35 -116.5q-22 -82 -30 -124l-12 -76q-8 -47 -12 -91q-8 -70 -8 -106q0 -31 9 -53q4 -9 12 -9q8 -2 12 -2q2 -1 3 -3.5t0 -4.5q-1 -5 -7 -9q-12 -6 -23 -3q-30 10 -39 35q-11 29 -12 50q-1 31 2 70l7 68l14 96q8 59 28 133l24 86
q12 39 27 75l4 8t2 12q-5 0 -8.5 -4t-4.5 -5q-19 -19 -37 -40q-71 -80 -126 -161l-20 -31q-9 -14 -12 -29q-10 -46 -32 -138l-6 -26q-13 -58 -38 -101q-10 -16 -16 -23q-8 -9 -20 -16q-10 -4 -15 -4q-4 0 -10 2q-10 4 -14 9.5t-3 15.5q0 11 3 21q8 26 13 38q36 89 71 154
q4 8 11 30q3 9 7 27l6 26q15 62 38 148l18 80q2 8 2 12v3q0 6 -3 7t-9 -2q-13 -6 -23 -20q-14 -20 -20 -30l-27 -49q-4 -4 -6 -4q-3 0 -6 2t-4 5q-1 2 -1 5l3 11q17 42 36 69q14 21 34 32q12 5 23 5h3q11 0 22 -9q10 -8 10 -18q1 -8 1 -24q0 -26 -6 -54.5t-7 -33.5
q-3 -16 -11 -48v-5q0 -2 2 -6l4 2q1 1 10 13l27 36q75 100 168 190l24 23q6 6 13 0l7 -6q4 -4 2 -11zM66 163l-1 9q-4 -2 -5.5 -6t-2.5 -5l-20 -50l-8 -27q-1 -2 -1 -5t1 -4q0 -1 2 -0.5t3 2.5q22 42 32 86z" />
    <glyph glyph-name="I" unicode="I" horiz-adv-x="255" 
d="M285 311.5q0 -2.5 -1 -3.5l-6 -3q-60 -12 -124 -78l-5 -25q-5 -26 -23 -101q-8 -32 -19 -58q-12 -27 -26 -44q-18 -20 -40 -24q-16 -2 -28 6.5t-13 25.5v7q0 7 4 23q37 90 103 169q51 248 76 333q9 30 14 52q0 1 3 14l-2 2h-2l-7 -6l-57 -75q-24 -32 -50 -80
q-10 -19 -13 -37q-1 -4 -4.5 -5.5t-7.5 0.5q-13 6 -12 20q3 21 10 36q24 50 45 78q73 96 127 160l6 8q9 9 19 4q6 -3 11 -8q5 -3 3 -8q-2 -8 -4 -14q-32 -107 -70 -273q1 3 -20 -93l-11 -53q48 40 87 54q4 1 9 2t12 1q6 0 9 -1q2 0 6 -2q1 -1 1 -3.5zM97 158
q-36 -49 -60 -97q-5 -10 -7.5 -17.5t-4.5 -12.5l-2 -12q0 -14 7 -24q2 -2 5 -2t4 1l8 8q10 14 19 35q10 25 22 77q3 12 9 44z" />
    <glyph glyph-name="J" unicode="J" horiz-adv-x="352" 
d="M592 699q0 -7 -5 -12q-9 -9 -20 -13q-20 -8 -31 -10q-36 -9 -110 -25q-2 0 -7 -1.5t-9 -1.5q-13 -1 -22 -15q-24 -35 -40 -80q-15 -41 -37 -127l-24 -103q20 2 56 4q4 1 9 2t12 1q6 0 9 -1q2 0 6 -2q1 -1 1 -3.5t-1 -3.5l-6 -3q-19 -3 -33.5 -4t-24.5 -2l-32 -3
q-1 -7 -5 -21q-10 -40 -16 -59q-23 -74 -64 -146q-28 -52 -73 -82q-29 -19 -65 -19q-16 0 -27 5q-25 10 -30 39q-3 14 -3 26q0 60 30 120q38 73 85.5 104.5t124.5 42.5l26 105q14 62 38 128q10 27 29 62l9 17q1 3 -0.5 5t-4.5 2h-21q-104 -14 -155 -28q-32 -9 -50 -21
q-21 -11 -31 -31q-4 -10 -4 -14q0 -5 3 -10q1 -2 0 -3.5t-3 -1.5q-11 1 -17 6.5t-5 15.5q0 9 3 16q8 21 30 36q12 9 40 19q29 10 70 19q65 12 100 15l32 4q9 2 31 4q8 2 12 7l19 18q41 37 90 48q19 5 47 3h30q19 0 31 -19q3 -4 3 -9zM554.5 702.5q-0.5 1.5 -1.5 1.5
q-5 3 -10 2.5t-7 -0.5q-24 1 -46.5 -6.5t-46.5 -23.5l-3 -3l-1 -4q3 -2 4 -1q42 8 80 18q7 2 26 10q3 0 5 4q1 1 0.5 2.5zM236 289q-66 -13 -111.5 -46t-79.5 -108q-15 -35 -20 -82q-2 -22 4 -42q5 -15 11.5 -21.5t16.5 -6.5t22 6q6 3 18 11q30 24 49 54q10 16 14 24
q50 101 68 178q6 22 8 33z" />
    <glyph glyph-name="K" unicode="K" horiz-adv-x="274" 
d="M281 46q-35 17 -58 47q-20 29 -37 61q-26 51 -40 85q-11 28 -36 63l-8 8q-4 0 -5 -1l-5 -4l-12 -18q-18 -26 -22 -59q-3 -22 -13 -71l-9 -30q-5 -13 -16 -13l-8 2q-7 2 -9.5 5.5t-2.5 10.5q0 6 1 9q4 30 8 44q8 30 13 67q8 52 18 97q12 66 38 198q3 22 7 59q1 2 1 7l-3 3
q-2 2 -4 0q-5 -3 -8 -8q-13 -15 -26 -32t-20 -33q-1 -3 -6 -3q-3 0 -6 2.5t-4 5.5q0 6 1 9q4 10 7 15q19 35 46 65l12 11q9 8 17 8q6 0 17 -7q10 -6 12 -19v-9v-22q-1 -52 -13 -112l-27 -143q-1 -2 -1 -7l1 -2h2l4 3q3 3 7 9q35 55 107 140l16 19q70 85 101 126l12 15
q4 5 9 5q6 0 11 -5q2 -2 2.5 -4t-0.5 -4l-8 -12q-38 -49 -118 -143q-67 -78 -104 -134q-8 -12 -11 -18q-3 -5 1 -8q21 -13 36 -32t30 -46l15 -29l47 -87q7 -13 25 -37q15 -20 41 -35q14 -8 26 -8q20 0 35 22l5 7q4 3 8 5h3q4 0 8 -2q2 -2 3 -6t-1 -8q-2 -2 -3 -4l-2 -4
q-24 -26 -54 -26q-32 0 -53 12z" />
    <glyph glyph-name="L" unicode="L" horiz-adv-x="169" 
d="M37 28q-19 3 -27.5 13t-9.5 30v16q1 24 11 72l32 154q11 50 24 95l12 44q21 74 28 97q1 6 3 10.5t3 7.5q1 2 3.5 3t4.5 0t5 -2t6 -3q8 -5 7 -14q-1 -14 -5 -37l-36 -151q-16 -65 -31 -142l-8 -37l-13 -64q-3 -18 -7 -47q-1 -5 -1 -16q1 -10 6 -14t17 -4q23 0 47 11l12 7
h3q5 0 8 -3q2 -1 2.5 -2.5t-0.5 -3.5q-5 -7 -11 -9q-14 -8 -40 -12q-5 -1 -17 -1q-15 0 -23 1q-3 0 -5 1z" />
    <glyph glyph-name="M" unicode="M" horiz-adv-x="445" 
d="M285 43q-13 28 -13 52v26q0 49 17 128q21 98 65 221q14 39 23 70l10 31q6 16 5 25l-1 2h-2q-6 -4 -7 -6q-7 -9 -19 -27q-21 -34 -45 -83q-29 -61 -66 -150q-13 -32 -52 -114l-8 -14q-8 -11 -21 -8q-23 7 -26 30q-1 6 -1 18q0 20 4 36q8 46 23 103l10 41q2 5 0 9q0 2 -1 2
h-2l-7 -7l-24 -40q-45 -96 -61 -157l-37 -134q-1 -9 -6 -18q-2 -5 -7 -5q-26 -5 -34 21q-2 4 -2 14q0 28 1 42q2 24 8 64l4 32q6 61 23 127l38 148q8 28 16 42q2 6 8 6h2q8 0 13.5 -6t4.5 -13l-3 -11q-22 -113 -43 -200q-11 -40 -18 -100q-1 -6 -3 -16.5t-1 -18.5l0.5 -1
t0.5 0q3 0 4 1l3 8l3 12q14 50 33 95l23 55q14 34 37 70q10 14 16 21t16 7q20 0 29 -21q3 -9 3 -18q0 -8 -1 -12l-15 -81q-4 -24 -14 -72q-1 -2 -0.5 -3.5t0.5 -3.5l2 -1h1t1 1l7 9l12 25q7 13 19 39l34 80q16 37 34 76t36 70q17 31 34 53q7 9 18 19q5 5 11 5q4 0 10 -4
q16 -10 18 -29l-1 -21q-4 -32 -20 -87q-20 -69 -37 -122q-30 -98 -48 -199q-7 -45 -7 -98q2 -23 9 -39q3 -8 13 -5q10 6 13 10q23 25 33 46l18 35l9 14q2 3 9 3q3 0 5.5 -2t1.5 -5l-2 -5l-9 -20l-13 -29q-9 -18 -36 -52q-11 -14 -29 -14q-37 0 -49 28z" />
    <glyph glyph-name="N" unicode="N" horiz-adv-x="327" 
d="M180 69q-2 8 -4 28q-1 48 6 96q9 63 37 177q3 13 8 30t7 25q17 58 33 122q8 31 9 63q1 5 0.5 8.5t-0.5 5.5q-1 3 -4 4.5t-5 -0.5q-10 -7 -20 -21q-17 -27 -22 -36q-62 -119 -103 -231l-82 -221l-2 -4q-4 -13 -15 -13q-7 0 -11 2q-9 3 -10 12q-1 5 -1 14q-2 25 6 75
q14 76 22 113q4 21 19 71l28 104q11 40 29 84l3 6q3 3 6 3q13 0 15 -12q2 -5 0 -10l-3 -18q-5 -18 -16 -70q-3 -13 -13.5 -58t-21.5 -82q-8 -26 -18 -78l-5 -26q-1 -2 -0.5 -3.5t0.5 -3.5l1 -1q3 0 4 1q5 7 5 8l13 35l38 102q35 92 88 202l24 43q8 15 23 28q9 8 23 8
q18 0 29 -17q4 -9 5 -16q2 -22 2 -33q0 -35 -13 -93q-18 -75 -25 -100q-16 -63 -34 -151q-7 -31 -12 -63q-7 -51 -7 -87q2 -26 13 -42l3 -6q2 -2 1 -4.5t-4 -4.5q-6 -3 -12 -3q-5 0 -11 3q-20 11 -26 35z" />
    <glyph glyph-name="O" unicode="O" horiz-adv-x="385" 
d="M52 19q-19 8 -30 30q-14 27 -18 58q-6 33 -4 77l3 30q2 32 5 50q0 6 1 9q5 13 5 30q0 13 -3 28t-3 30q0 14 1 21q6 83 51 147q55 75 137 99q26 7 44 7q24 0 48 -9q36 -13 56 -45q20 -34 20 -71q1 -87 -32 -187q-2 -8 -8 -24q38 13 53 16q4 1 9 2t12 1q6 0 9 -1q2 0 6 -2
q1 -1 1 -3.5t-1 -3.5l-6 -3q-51 -13 -90 -27l-13 -32q-24 -62 -71 -133q-16 -22 -35 -44q-17 -20 -51 -42q-29 -16 -58 -16q-20 0 -38 8zM114 231q21 0 52.5 10t84.5 30l46 18q17 48 26 87q18 65 15 112v30q1 38 -29 75q-18 23 -45 21q-18 0 -41 -7q-59 -21 -102 -70.5
t-58 -103.5q-2 -4 -2 -7l1 -4q1 -1 3 0t3 3l12 20q4 7 14 19q6 7 17 7q7 0 13 -3q2 -1 3 -3.5t1 -4.5q-2 -3 -4 -9q-22 -39 -45 -101l-15 -47q-2 -5 -2 -14q0 -13 5 -22q7 -14 11 -18q1 -2 11 -12q9 -6 25 -6zM127 39q22 11 43 32q33 31 58 74q34 53 62 124l-42 -16
q-48 -18 -76 -26t-54 -8q-27 0 -52 8q-3 2 -11 4q-3 0 -3 -2l-2 -4q-6 -48 -6 -73q0 -52 16 -92q6 -14 10 -21q9 -14 26 -12q11 2 31 12z" />
    <glyph glyph-name="P" unicode="P" horiz-adv-x="359" 
d="M26 25q-17 0 -21 12q-7 13 -5 32l3 23q3 36 11 106q13 110 38 203l45 161q9 32 20 52l9 17q5 8 13 8l9 -2q11 -4 9 -15q0 -8 -3 -16q-9 -28 -21 -84l-5 -21q-6 -25 -20 -75l-6 -23q-11 -41 -17 -70v-5l5 5l3 9l23 71q23 67 71 140q23 35 56 63q23 20 53 26l9 1
q17 0 33 -10t23 -26q6 -15 8 -37q0 -16 -3 -36t-4 -25q-1 -12 -5 -25q-24 -103 -86 -202q-21 -33 -48 -55q-4 -3 -10 -7t-14 -8q-12 -6 -25 -6q-10 0 -25 5q-20 8 -24 27q-1 2 -2 5t-1 7q-2 16 -2 25q0 57 40 103q8 9 20 16q7 4 14 1q3 -1 4.5 -4t-0.5 -5l-5 -5
q-40 -40 -42 -99q0 -11 2 -31q0 -9 6 -17q3 -4 6 -2q5 1 10 6q20 15 32 31l21 29q56 92 83 183q9 30 16 71q2 14 2 42q0 12 -4 21t-12 9q-15 0 -35 -14q-13 -9 -26 -20q-25 -23 -41 -46q-50 -71 -72 -134q-42 -117 -64 -223l-32 -145v-2q-3 -15 -13 -15h-4z" />
    <glyph glyph-name="Q" unicode="Q" horiz-adv-x="366" 
d="M199 -60q-11 0 -17 9l-13 19q-18 30 -33 63q-3 6 -11 5q-3 0 -9 -2q-10 -3 -20 -3q-24 0 -45 13.5t-32 35.5q-19 36 -19 74q0 8 2 24q4 31 14 95l1 9q0 4 -2 12q-3 9 -4 16t-2 11q-3 17 -3 32q0 19 4 53q5 39 14 66q27 93 100 159q31 29 82 40q5 1 16 1q15 0 30 -3
q20 -4 42 -16q14 -7 25 -21q17 -25 23 -54q5 -28 4 -47q1 -39 -11 -88q-16 -75 -44 -149q30 11 67 21q4 1 9 2t12 1q6 0 9 -1q2 0 6 -2q1 -1 1 -3.5t-1 -3.5l-6 -3q-56 -15 -106 -33l-15 -36q-24 -51 -61 -114q-13 -24 -37 -51q-7 -8 -3 -18q27 -65 38 -88q7 -14 8 -17
q1 -2 -1 -4t-4 -3q-3 -1 -8 -1zM117 241q24 0 53.5 9.5t86.5 30.5q28 66 52 162q13 54 12 90l-2 33q-3 38 -24 66q-10 12 -18 14q-14 6 -29 6q-8 0 -19 -3q-44 -13 -71 -40q-62 -62 -88 -148q-1 -3 -1 -9q0 -2 1 -2q2 -2 4 0l6 7q6 6 13 6t12 -4q7 -5 5 -10q-4 -13 -5 -16
l-6 -20q-2 -5 -4.5 -12.5t-4.5 -16.5q-5 -17 -8.5 -30t-6.5 -22l-10 -37q-1 -4 -1 -11q0 -8 3 -16q14 -27 50 -27zM121 68q0 3 -3 10l-10 29q-5 14 -8 25l-1 3q0 3 2.5 5t5.5 2h6q15 0 21 -13q4 -8 7 -14.5t5 -11.5q2 -4 5.5 -4.5t5.5 2.5q16 20 23 30q42 72 60 110l8 18
l-34 -14q-39 -17 -61 -24t-45 -7q-19 0 -48 8q-2 1 -4 -0.5t-3 -3.5l-2 -4q-2 -16 -2 -24q-4 -32 -4 -49q0 -29 16 -66q4 -8 9 -13q10 -13 20 -13q5 0 19 7q12 7 12 12z" />
    <glyph glyph-name="R" unicode="R" horiz-adv-x="381" 
d="M326 -57q-16 11 -31 29q-22 25 -39 56l-24 43q-16 28 -25 42l-36 58q-16 24 -40 44l-9 7q-4 2 -7 2q-7 0 -10 -8l-6 -15q-26 -73 -45 -154l-8 -36q-2 -10 -4 -16q-1 -4 -7 -6t-9 -2q-6 0 -11 3q-7 3 -7 9l-1 11l1 10q3 29 9 58q12 46 28 110q3 12 3 13q1 3 1 7q0 6 -10 8
q-8 2 -22 8q-7 5 -13 10q-4 4 -4 9q0 6 6 12q14 8 31 10q11 0 17 1q8 0 11 2t5 11q9 31 25 93q28 114 64 216l12 38q1 6 5 11q1 1 6 4h1q7 0 12.5 -5t4.5 -12q-3 -31 -10 -55l-37 -144l-5 -23l1 -1t2 -1h2l4 8l18 41q29 66 70 120q27 39 67 65q17 11 35 15q10 2 16 2
q9 0 18 -3q13 -5 22 -10q28 -15 28 -51q-1 -5 -2 -12.5t-4 -17.5q-13 -59 -55 -119q-51 -69 -119 -130q-44 -38 -95 -65l-12 -7q-1 -1 -1 -2.5t1 -1.5l6 -7q48 -35 80 -86l51 -79q24 -38 37 -57q16 -25 42 -47q9 -7 15 -7t9 2q4 3 13 1q10 -3 10 -10q0 -10 -6 -14
q-8 -6 -18 -4q-34 2 -57 19zM138 271q63 42 93 71l38 39q45 48 69 86q37 57 51 113l4 21q0 3 -0.5 7.5t-2.5 10.5q-1 5 -4.5 8t-8.5 3q-7 0 -10 -1q-12 -1 -28 -10q-46 -26 -78 -70q-41 -55 -68 -116q-12 -30 -27 -60q-26 -58 -37 -88q0 -1 -3 -14q0 -1 1 -2t2 -1z
M47.5 235.5q4.5 0.5 8.5 3.5q1 0 1 4q0 2 -3 3q-2 2 -4 0l-11 -3q-2 -1 -3 -2.5t0 -2.5l5 -3q2 0 6.5 0.5z" />
    <glyph glyph-name="S" unicode="S" horiz-adv-x="316" 
d="M345 311.5q0 -2.5 -1 -3.5l-6 -3l-110 -28l3 -10q15 -48 19 -90q2 -24 2 -36q0 -22 -4 -41q-3 -18 -12 -33q-16 -32 -47 -54q-34 -24 -74 -24q-23 0 -49 9q-16 5 -29 20q-9 9 -21 31q-16 36 -16 77q0 22 10 49q21 44 64.5 69t107.5 41q-4 16 -14 46q-9 23 -25 71
q-16 46 -23 86q-3 17 -3 32q0 25 7 47q15 53 58 70q21 10 46 10t49 -12q9 -4 18 -12q24 -22 24 -50q0 -12 -5 -27q-10 -30 -31 -46q-4 -2 -6 -2q-5 0 -9 3q-5 3 -3 8l10 18q13 26 13 50q0 23 -13 37q-8 10 -20 10q-42 -2 -68 -33q-21 -25 -24 -62q-1 -8 -1 -23q0 -29 7 -54
q17 -62 30 -97q8 -20 22 -60l40 9l47 11q4 1 9 2t12 1q6 0 9 -1q2 0 6 -2q1 -1 1 -3.5zM188 266q-66 -19 -98 -40.5t-50 -62.5q-8 -22 -8 -43q0 -14 2 -22q6 -26 11 -40q12 -25 27 -39q14 -13 33 -13q8 0 12 1q27 8 44 26q38 45 42 93q1 8 1 26q0 46 -16 114z" />
    <glyph glyph-name="T" unicode="T" horiz-adv-x="266" 
d="M99 3.5q-3 2.5 -5 5.5q-5 13 -5 25q0 5 2 19l6 31q7 47 16 84l30 131q12 53 39 145q8 29 22 89l2 9q0 2 -1.5 3.5t-3.5 1.5q-3 0 -8 -1t-8 -2q-18 -5 -60 -11q-6 -1 -19 -1q-31 0 -68 15q-17 7 -25 17q-13 12 -13 29q0 6 1 9q4 18 11 28q7 11 18 6l7 -3q4 -3 4 -8
q0 -6 -2 -18q-2 -14 -2 -19q0 -12 6.5 -20t18.5 -9q10 -2 14 -2h20q22 0 55 7l57 15q12 4 15 13q0 2 1 2q4 12 13 12q5 0 11 -3l6 -5q5 -5 15 -3l50 14l31 9q18 6 27 8q45 13 72 13q20 0 30 -1q22 -3 40 -19q7 -7 7 -14q0 -4 -3 -9l-9 -14q-4 -4 -10 -4t-11 3t-7 8
q-1 2 -0.5 3.5t0.5 3.5l3 11q0 3 -4 5q-3 1 -9 1q-37 -2 -61 -9l-104 -27q-25 -7 -43 -11q-14 -3 -15 -16l-7 -41q-5 -33 -21 -89q-25 -82 -52 -208l-21 -94q-5 -23 -13 -69q-1 -3 -3.5 -15t-8.5 -21q-8 -10 -22 -12q-3 0 -6 2.5z" />
    <glyph glyph-name="U" unicode="U" horiz-adv-x="393" 
d="M352 -17q-20 0 -37 9q-32 16 -46 46q-14 27 -17 65q-1 14 -1 39q3 107 27 196q5 20 22 89q1 2 -1 5l-2 -1q-3 -2 -8 -11l-27 -50q-5 -11 -17 -33l-90 -170q-28 -53 -54 -86q-9 -12 -20 -23q-14 -14 -37 -11l-9 2q-19 7 -25 23q-5 17 -8 29q-2 18 -2 26q0 51 9 101.5
t26 111.5q29 100 70 189l15 32q9 17 24 29q4 4 11 4q8 0 13 -4q2 -2 3.5 -5t0.5 -5q-2 -8 -4 -11q-6 -12 -11.5 -27t-7.5 -21q-7 -22 -23 -64q-40 -100 -62 -200q-17 -75 -18 -138q0 -26 2 -39q1 -2 4 -3.5t4 -0.5l14 13q27 30 48 66l24 41q34 64 112 208l40 73l27 53
q12 25 29 50q5 8 14 5l9 -4q9 -6 8 -16q0 -4 -2 -14q-22 -90 -32 -135l-9 -37q-22 -92 -24 -100q-14 -62 -16 -147q0 -40 9 -70q5 -19 13 -32q8 -16 25 -28q7 -4 14 -1q8 4 18 3q7 -4 6 -6q0 -7 -3 -8q-8 -6 -13 -6q-5 -1 -15 -1z" />
    <glyph glyph-name="V" unicode="V" horiz-adv-x="281" 
d="M77 3q-35 0 -50 38q-6 16 -7 25q-11 49 -16 107q-4 73 -4 165q0 49 6 145q2 44 14 78q6 18 10 27q5 9 14 9l8 -2q3 -1 5.5 -4t1.5 -6q-1 -14 -5 -35q-4 -24 -5 -52t-1 -35q-1 -45 -1 -136q0 -26 2 -76l1 -21q0 -66 10 -126q5 -37 14 -62q0 -2 6 -10q0 -1 1.5 -1t2.5 1
q5 3 8 8q17 27 31 58q30 71 51 137q25 79 81 235q23 67 57 124l24 34q11 15 28 26q5 4 12 4q6 0 12 -3q2 -1 3 -3.5t-1 -4.5l-10 -10q-21 -20 -44 -55q-39 -65 -63 -136q-54 -150 -78 -227q-21 -66 -48 -129q-2 -6 -17 -35l-10 -21q-1 -3 -9 -16q-8 -11 -24 -14z" />
    <glyph glyph-name="W" unicode="W" horiz-adv-x="559" 
d="M304 -14q-30 25 -40 59q-6 18 -9.5 39.5t-4.5 27.5q-4 36 -4 54q0 11 2 35l2 21q1 58 18 130q4 17 10 51l-2 4q0 1 -2 0t-3 -3l-3 -6l-28 -72q-7 -17 -19 -51q-28 -85 -90 -196q-10 -17 -19 -27q-10 -15 -31 -15q-32 -2 -44 27l-8 20q-9 35 -9 70q0 54 15 119
q28 114 89 219q12 22 34 51l22 29q4 6 14 18q2 3 7 8.5t4 12.5q-2 1 -5 1q-4 0 -9.5 -2.5t-7.5 -3.5q-44 -15 -87 -46q-18 -14 -25 -22q-32 -32 -47 -61q-2 -5 -10 -5l-7 3q-9 3 -7 13l6 13q29 54 77 87q63 40 131 56q20 6 30 6q18 -2 26 -10q6 -4 4 -13l-5 -10
q-6 -8 -12 -18t-14 -21q-8 -12 -26 -34q-64 -80 -108 -195q-27 -72 -37 -141q-4 -38 -4 -57q0 -30 6 -62q1 -2 2.5 -8.5t4.5 -11.5q1 -1 2.5 -1t2.5 1q3 0 5 4q3 3 7.5 9.5t7.5 11.5q34 53 56 103q23 54 45 116q25 64 62 148q7 16 15 29l7 12q8 11 19 11q8 0 19 -7
q6 -5 8 -17v-14q0 -9 -1 -14q-2 -20 -10 -60q-5 -30 -17 -88q-14 -70 -14 -152q0 -41 10 -91q3 -16 9 -29q6 -23 31 -44q8 -6 13 -6q6 0 14 5q20 13 32 34q8 14 16 34q29 71 38 143q12 90 17 135q8 68 7 91q0 62 -5 97l-3 13q-1 7 -10 10q-14 3 -26 9q-19 8 -25 27
q-2 6 -2 9q0 10 8 17t19 7q28 0 45 -23q4 -4 6 -10q3 -5 5.5 -8t5.5 -3q4 0 12 5q15 8 30 18q42 30 62 47q1 2 9 7q4 4 9 4q2 0 8 -2q9 -3 9 -10q0 -4 -4 -8q-7 -7 -11 -9q-30 -24 -60 -45q-21 -15 -46 -24q-10 -3 -13 -5t-3 -8l2 -13q4 -25 5 -35q3 -19 3 -40
q1 -61 -8 -129q-6 -40 -8 -61l-8 -58q-11 -82 -42 -158l-12 -26q-9 -17 -28 -34q-23 -22 -60 -22q-11 0 -17 1q-13 1 -25 13zM464 571q4 2 1 10q-4 16 -9 21l-7 3l-5 -4q-4 -5 -4 -12q0 -6 3.5 -11.5t9.5 -7.5q5 -2 11 1z" />
    <glyph glyph-name="X" unicode="X" horiz-adv-x="456" 
d="M0 -34l6 15q88 204 158 326q8 14 26 42l16 26q9 14 9 31q-2 38 -2 56l-2 57q-4 48 -9 72q-4 22 -9 32q-4 11 -15 6q-15 -8 -31 -25q-1 -1 -10 -13q-4 -4 -11 -2q-9 4 -9 10q0 7 1 9q14 27 39 39q10 5 22 5q19 0 40 -16q14 -12 20 -31q10 -25 13 -57q6 -44 6 -66
q0 -6 1 -9q0 -1 1 -4t3 -4q4 -1 7 4l15 19l19 24q12 16 38 48q36 42 91 94l11 9q6 6 15 4q6 -1 8 -5t-1 -9l-13 -16q1 1 -37 -40q-55 -60 -92 -113l-33 -48l-14 -20q-2 -4 -7.5 -11.5t-6.5 -12t-1 -10.5q0 -34 2 -100l2 -94q2 -35 6 -68q3 -32 19 -55q-1 2 10 -13
q1 -2 4.5 -2.5t6.5 0.5q1 1 10 7q15 13 25 31q37 58 57 103q24 54 37 81q2 5 6.5 15t5.5 18q1 4 5 6t9 0q4 -1 7 -4t2 -7l-1 -7q-4 -14 -7 -20q-52 -121 -94 -190q-18 -26 -28 -35q-24 -21 -52 -21q-28 -1 -45 22q-18 28 -22 54q-3 14 -4 24.5t-2 17.5q-3 26 -4 56.5
t-1 40.5v37v24q0 4 -3 5q-2 2 -6 -2l-9 -16q-76 -131 -148 -286l-15 -30l-9 -14q-5 -6 -12 -6t-12 5q-2 4 -2 7z" />
    <glyph glyph-name="Y" unicode="Y" horiz-adv-x="395" 
d="M425 311.5q0 -2.5 -1 -3.5l-6 -3l-94 -25q-23 -65 -51 -129q-32 -74 -78 -128q-43 -50 -108 -81q-8 -4 -24 -8q-7 -3 -13 -3q-7 0 -15 3q-23 4 -31 29q-4 14 -4 23q0 6 1 9q2 23 9 44q24 69 82 127q37 40 82.5 67.5t102.5 48.5q12 33 25 74q34 104 60 205l21 80q1 4 1 14
v0.5t-1 0.5l-2 1l-6 -4l-19 -21q-55 -62 -96 -122l-65 -98l-54 -77q-15 -21 -36 -40q-8 -7 -22 -7q-19 0 -28 14q-4 6 -5 10t-0.5 7.5t-0.5 5.5q1 31 12 73l9 29q39 112 70 177q12 26 19 38l7 12q4 6 13 4q12 -5 10 -14q0 -8 -3 -17q-12 -38 -16 -49q-27 -70 -58 -169
q-14 -40 -19 -70v-7q0 -2 1 -2t2 -0.5t2 0.5q7 3 15 15q39 50 54 71l75 108q47 69 121 150q7 9 24 23q5 4 12 4q6 0 12 -3q14 -7 14 -20q0 -9 -2 -25q-10 -62 -31 -148q-24 -99 -57 -194l-4 -12q19 6 57 16q4 1 9 2t12 1q6 0 9 -1q2 0 6 -2q1 -1 1 -3.5zM270 262
q-35 -14 -64 -33t-70 -55q-42 -37 -69 -80q-27 -44 -35 -84q-3 -11 -3 -21q0 -14 4 -23l5 -11q6 -7 10 -7q3 0 8 3q6 2 7 3q62 38 96 81q40 51 69 120q21 50 42 107z" />
    <glyph glyph-name="Z" unicode="Z" horiz-adv-x="329" 
d="M23 -27q-8 0 -20 8q-2 1 -3 3.5t0 4.5l4 8q22 31 58 97l34 62l108 187l45 78l28 49q32 55 68 96l6 9q1 1 0.5 2t-0.5 2q0 2 -2 2l-37 -3q-70 -10 -101 -13q-38 -3 -69 -14q-15 -5 -24 -14q-9 -7 -5 -16q1 -4 -1 -5.5t-6 0.5l-7 3q-11 6 -11 16q0 7 6 16q5 8 14 11
q16 8 24 10q28 8 53 11q20 2 60 8l28 4l52 6l51 8q14 2 21 2h2q11 0 18 -9q5 -5 0 -10q-58 -60 -101 -138q-51 -91 -94 -166q-20 -36 -31 -54l-31 -54l-57 -98l-31 -55q-5 -7 -5 -8q-2 -3 0 -7q1 -1 2.5 -1.5t3.5 -0.5q11 2 25.5 3t20.5 1q41 3 73 2l20 -1q80 0 123 50
q3 4 9 4q5 0 9.5 -2.5t5.5 -6.5q2 -7 -1 -11q-8 -10 -13 -14q-34 -28 -79 -34q-30 -4 -45 -4q-12 0 -18 1q-9 1 -17.5 0.5t-16.5 -0.5q-9 -1 -23.5 -1t-34.5 -2q-28 -2 -55 -12l-24 -8q-6 -2 -9 -2z" />
    <glyph glyph-name="a" unicode="a" horiz-adv-x="260" 
d="M85 131q-3 8 -3 25q1 13 4 28t4 21l1 9l-3 3h-2l-8 -8q-30 -33 -29 -32l-21 -18q-6 -5 -17 -5q-15 0 -28 7q-21 11 -22 33q0 15 1 22q5 30 17 53l24 40q7 12 22 25q18 13 38 13q15 0 31 -8q10 -6 19 -20l5 -11q1 0 2 -0.5t2 0.5l7 6l30 43l12 17q4 7 12 7q6 0 10 -4
q6 -3 5 -10q0 -3 -2 -9q-12 -32 -19 -48q-7 -19 -23 -57q-14 -35 -25 -95q-2 -16 -2 -23t1 -10q1 -2 4 -3.5t5 -0.5q5 3 19 14q18 18 34 42q50 73 73 115q3 8 9 14q2 3 6 3t7.5 -2t4.5 -5q0 -1 0.5 -2t-0.5 -2q-1 -5 -5 -13l-27 -47l-42 -66q-16 -23 -31 -43
q-14 -16 -22 -22q-13 -12 -28 -12q-8 0 -20 5q-21 9 -30 31zM17 189l19 14q33 31 73 85l2 2q1 2 0 4.5t-3 3.5q-12 5 -13 15q-1 3 -5 9q-3 6 -9 6q-4 0 -9 -3q-14 -8 -24 -25q-24 -36 -36 -78l-5 -24q0 -8 4 -10q5 0 6 1z" />
    <glyph glyph-name="b" unicode="b" horiz-adv-x="194" 
d="M37 122q-4 12 -4 28q0 9 1 14q9 32 22 54q-1 -2 10 13q3 3 7.5 3.5t8.5 -0.5q2 -1 3 -3.5t0 -4.5l-5 -10q-9 -15 -14 -38q-4 -14 -4 -22q0 -10 2 -15q0 -3 3 -3l4 2q5 7 5 8q37 74 48 132q5 24 3 49q0 3 -2 9q0 3 -6 3l-8 -4q-11 -8 -29 -28q-31 -39 -51 -87
q-7 -18 -9 -38l-1 -26l-3 -16q-2 -9 -10 -9q-4 -1 -14 -1q-12 1 -13 14q-1 5 -1 16v33q0 107 41 240q14 44 22 65q12 36 32 70q14 23 27 36q6 6 13 10q13 8 24 8q13 0 26 -9q8 -5 8 -14q1 -7 0 -14q-1 -18 -10 -41q-11 -32 -32 -68l-17 -28q-40 -68 -63 -100q-5 -6 -9 -21
l-6 -28q-1 -3 0 -5t2 -3q5 2 6 4q6 7 11 14t11 14q14 16 27 25q12 9 28 9q10 0 19 -3q12 -5 17 -16q4 -7 6 -23q2 -39 -8 -72q-16 -54 -38 -96q-9 -19 -25 -34q-16 -13 -35 -10q-16 3 -20 17zM73 423l12 19q20 32 29 49q17 30 28 64q8 24 8 39l-2 6q0 1 -2 1q-5 0 -8 -5
l-12 -15q-11 -17 -24 -48q-13 -33 -25 -75l-9 -29l-1 -3q-1 -2 0 -4t2 -1z" />
    <glyph glyph-name="c" unicode="c" horiz-adv-x="187" 
d="M-1 106q-9 7 -12 17q-7 20 -7 56q5 77 36 150q16 37 43 70q9 12 23 24q14 11 28 11q18 0 35 -14q9 -6 9 -18q3 -42 -17 -77q-6 -10 -18 -7q-2 1 -4 3.5t-1 3.5l6 18q9 28 8 56q0 4 -1 7q0 2 -2.5 3.5t-4.5 -0.5q-8 -5 -9 -7q-19 -24 -20 -26q-38 -59 -54 -125
q-7 -31 -13 -91q-1 -16 4 -39q1 -2 3.5 -3t4.5 0l13 8q28 25 48 52q41 52 77 101l24 29q2 3 6.5 3.5t8.5 -1.5q2 -1 3.5 -3.5t0.5 -4.5l-3 -6l-12 -17l-82 -109q-25 -32 -44 -50l-16 -14q-13 -10 -28 -10q-21 2 -33 10z" />
    <glyph glyph-name="d" unicode="d" horiz-adv-x="259" 
d="M102 70l-6 20q-5 25 -5 71q1 10 1 30q0 2 1 7.5t-4 6.5h-1q-3 0 -5 -3.5t-3 -4.5q-18 -21 -17 -20q-5 -6 -12 -12q-13 -12 -30 -12q-9 0 -18 3q-24 6 -30 30q-5 15 -3 30q6 57 45 104q18 23 51 23q12 0 27 -5q3 -1 16 -9q2 -1 4.5 0t3.5 3l5 13l26 83q24 70 64 140
q17 29 33 46q8 10 21 16q6 3 13 3q4 0 10 -2q18 -6 25.5 -14t7.5 -21q0 -4 -2 -16q-6 -23 -18 -46q-21 -41 -41 -68q-46 -64 -85 -104q-14 -16 -19 -37q-18 -71 -23 -120q-3 -27 -3 -55q0 -16 2 -48q0 -7 4 -21q2 -5 5 -5.5t7 3.5q2 3 5.5 6.5t6.5 7.5q18 26 26 42l32 68
l38 91l6 13q2 4 7.5 5.5t9.5 -1.5q3 -3 3 -5q1 -3 0.5 -4.5t-0.5 -2.5q-1 -3 -5 -14l-62 -144q-14 -30 -33 -57q-6 -10 -19 -21q-12 -12 -30 -12q-22 0 -32 19zM186 404q4 3 7 7q34 40 62 83q16 26 27 49q6 11 14 35q3 7 5 23l-1 7q-1 5 -5 6.5t-8 -0.5q-10 -8 -18 -18
q-14 -16 -28 -43q-37 -73 -54 -128q-4 -12 -5 -18q0 -1 2 -3h2zM24 182q2 0 4.5 2.5t4.5 3.5l3 3q41 37 72 103q0 2 1 3q2 5 -4 7q-11 3 -14 15q0 2 -3 3q-1 2 -6 4q-3 0 -9 -2q-12 -4 -21 -18q-33 -49 -36 -110q0 -10 4 -13q1 -1 4 -1z" />
    <glyph glyph-name="e" unicode="e" horiz-adv-x="161" 
d="M-36 110l-3 16q-1 8 -1 22q0 79 36 149q14 26 30 42q7 8 19 17q14 9 29 8h3q8 0 20 -5q22 -9 22 -30q0 -6 -3 -14q-5 -19 -22 -39q-16 -17 -42 -33q-9 -4 -25 -8q-9 -1 -12 -12l-6 -25q-6 -39 -5 -73v-7q2 -11 8 -11q4 0 9 4q12 9 22 19q27 28 41 50q16 22 23 33l60 90
l2 4t3 4q3 3 8 3q6 0 9 -4l2 -4q0 -3 -2 -7q-6 -12 -10 -18q-32 -47 -67 -103q-18 -27 -46 -62q-14 -15 -30 -27q-12 -8 -28 -8q-13 0 -23 5q-17 8 -21 24zM34 256q8 3 16 9.5t11 9.5q18 15 29 41q4 8 4 18v2q-1 5 -5 6.5t-8 -0.5q-9 -5 -19 -17q-24 -31 -34 -63q-2 -5 2 -6
q2 -2 4 0z" />
    <glyph glyph-name="f" unicode="f" horiz-adv-x="188" 
d="M-36 -72q-6 18 -8 27q-6 21 -6 65q3 88 21 173q18 76 31 113q9 24 29 70q13 30 36 54q12 14 23 20q9 5 21 5q21 0 33 -14q7 -7 7 -18l-2 -16q-8 -28 -19 -51q-26 -55 -59 -95q-5 -5 -13 -17q0 -2 1 -2q0 -1 0.5 -1.5t0.5 0.5q6 1 16 5q54 26 105 57l17 9q4 2 7 2
q4 0 10 -4q2 -2 2.5 -4.5t-1.5 -3.5q-8 -8 -17 -13q-66 -38 -101 -54l-64 -30q-4 -1 -5.5 -4.5t0.5 -6.5l7 -15q11 -21 19 -48q1 -7 5 -19q12 -37 12 -84q0 -35 -6 -69q-4 -23 -18 -43q-13 -20 -38 -20q-13 0 -23 6q-17 10 -23 26zM41 264.5q1 -0.5 2 0.5q56 67 80 149
q1 3 1 9v5l-3 3q-3 2 -5 0l-12 -11q-17 -20 -31 -49q-17 -40 -34 -95q-1 -2 -1 -7v-2q0 -2 1 -2t2 -0.5zM14 -78q2 0 3 2l6 6q12 16 15 37q8 38 8 73q0 33 -9 66q-3 9 -7 27l-8 23q0 3 -4 5q-1 1 -2 0.5t-2 -0.5l-2 -4t-1 -5q-14 -71 -15 -142q0 -5 -0.5 -12.5t0.5 -17.5
q0 -19 9 -46q0 -2 6 -10q1 -2 3 -2z" />
    <glyph glyph-name="g" unicode="g" horiz-adv-x="236" 
d="M-29 -152q-12 3 -17 15q-4 14 -4 22q0 5 1 8q4 29 15 54q27 60 74 117l24 29q8 9 13 25l13 47q6 25 25 84l6 20l-2 4h-2l-11 -9l-20 -20l-31 -29q-11 -10 -24 -18q-10 -7 -23 -7q-12 0 -26 8q-12 6 -14 21q0 12 1 18q10 49 49 85l5 4q20 16 44 16q22 0 43 -15l7 -6
q3 -2 7 0l13 13l15 16q5 5 14 5q6 0 10 -2q6 -4 6 -10q0 -4 -4 -18l-31 -106q-2 -7 -4 -23l1 -1q2 -1 3 0l7 5l23 28q16 18 46 56l18 21q4 4 11 4q8 0 13 -5q3 -2 1 -4q-1 -4 -5 -10l-39 -48l-26 -31l-59 -69q-14 -16 -21 -42l-28 -109q-13 -52 -33 -90q-15 -26 -32 -41
q-16 -14 -40 -14zM34 235q35 27 62 57l3 3q1 2 1 5v2q-4 10 -7 15q-2 4 -6.5 5.5t-9.5 -0.5q-14 -8 -19 -14q-29 -32 -39 -69q-1 -2 -1 -7q0 -1 2.5 -2.5t3.5 -0.5zM-8 -128l5 5q11 14 20 35q11 24 20 54t16 59q0 1 0.5 2.5t-0.5 2.5q0 3 -1 4q-4 0 -5 -1q-37 -48 -60 -105
q-7 -23 -7 -39q0 -8 1 -12q0 -7 5 -7q2 0 6 2z" />
    <glyph glyph-name="h" unicode="h" horiz-adv-x="265" 
d="M120 55q-10 0 -21 6q-14 7 -15 20q-1 6 -1 19q-1 52 17 130l22 84q2 8 2 11q0 2 -1 2q-1 1 -4 1l-8 -8q-4 -6 -11.5 -16.5t-11.5 -18.5l-50 -94q-10 -21 -13 -25q-6 -9 -16 -8q-6 0 -14 2q-9 3 -12 8t-3 13q-1 20 7 56q17 82 47 168l25 65q13 32 40 75q18 24 29 34
q10 10 22 14q9 3 18 3q17 0 33 -12q8 -6 8 -16t-3 -21q-6 -22 -20 -40q-10 -14 -32 -40q-40 -44 -69 -68q-12 -10 -16 -25q-9 -33 -16 -55l-12 -42q-3 -8 -1 -17v1q5 2 9 10l18 31q16 26 27 38q5 6 17 16q10 8 21 8q14 0 22 -7.5t8 -20.5v-9q0 -14 -3 -28l-24 -110
q-11 -51 -11 -84v-12q0 -2 1 -3.5t2 -2.5t3.5 0t4.5 3q6 4 10 10q21 29 26 36q32 48 64 112q13 26 25 46q3 5 11 15q4 4 11 4t11 -3l2 -4q0 -1 -0.5 -3.5t-2.5 -5.5q-19 -32 -40 -73q-31 -60 -58 -104q-19 -31 -39 -50q-15 -11 -22 -13q-8 -2 -13 -2zM104 451q39 39 60 71
q12 19 16 34q2 8 2 11q0 4 -1 5q0 1 -2 2.5t-3 0.5q-6 -2 -9 -4q-7 -6 -19 -20q-29 -42 -50 -96q-1 -2 0 -4t2 -2z" />
    <glyph glyph-name="i" unicode="i" horiz-adv-x="116" 
d="M39 376q-3 0 -6 2q-10 5 -10 16q0 12 4 21q2 4 7 5.5t9 -0.5q10 -5 18 -18q2 -2 2 -9q0 -12 -7 -16q-6 -3 -13 -2q-1 1 -4 1zM-2 113q-14 0 -25 11q-5 5 -6 12q-2 7 -2 23q0 77 37 149q3 6 7 10t11 3l8 -4q7 -3 5 -12l-6 -25l-6 -26q-11 -48 -12 -52q-1 -3 -6 -49
q0 -4 4 -5q3 0 4 1q2 1 3.5 2t2.5 2q19 17 29 31l23 33l37 63l14 22q6 9 18 6q4 -1 6 -4.5t1 -6.5l-8 -15l-54 -88q-17 -29 -51 -64q-14 -12 -24 -15q-6 -2 -10 -2z" />
    <glyph glyph-name="j" unicode="j" horiz-adv-x="147" 
d="M14.5 407q-11.5 8 -10.5 21v5q0 12 8 26q3 5 8 6.5t10 -1.5q12 -6 23 -23q2 -2 2 -9q0 -15 -13 -26l-4 -3q-12 -4 -23.5 4zM-76 -213q-12 11 -17 31q-7 22 -7 49q0 21 4 37q11 59 43 121q3 6 27 49q8 12 11 18q5 10 5 18v10q2 73 9 145l6 51l3 16q3 7 10 7q15 0 16 -12
q2 -7 2 -21q1 -19 1 -56h-1v-57q0 -3 2 -11q0 -1 1.5 -1t2.5 -1l1 2q5 3 6 7q30 44 90 109l10 10q6 6 13 6t12 -4q2 -1 3 -3.5t0 -4.5q-3 -6 -7 -10l-24 -26q-32 -32 -69 -83q-3 -5 -35 -50q-9 -10 -9 -23l-1 -33q-2 -44 -4 -66l-1 -23q0 -41 -6 -80q-4 -43 -26 -92
q-9 -18 -25 -28q-13 -8 -25 -8l-9 1q-6 1 -12 6zM-52 -198q3 0 4 2q4 4 6 10q18 40 23 91q2 19 4 59l2 60q0 5 -1 7l-3 3h-2q-4 -4 -5 -6q-33 -59 -45 -115q-5 -23 -5 -41q0 -13 1 -20q4 -23 11 -38q1 -3 3 -5t3 -5q1 -2 4 -2z" />
    <glyph glyph-name="k" unicode="k" horiz-adv-x="229" 
d="M69 -1q-22 5 -26 24q-7 20 -8 37q-2 21 -4 63q-2 28 -5 42q-2 8 -4 11q-2 5 -6 5q-2 0 -6 -4q-10 -19 -15 -42l-9 -42q-2 -6 -4 -8q-2 -3 -7 -5h-4q-2 0 -10 2q-6 2 -8.5 5.5t-2.5 10.5v8q3 27 11 64q12 51 44 151q13 43 27 84l25 65q13 32 40 75q18 24 29 34
q10 10 22 14q9 3 18 3q17 0 33 -12q8 -6 8 -16t-3 -21q-6 -22 -20 -40q-10 -14 -32 -40q-40 -44 -69 -68q-12 -10 -16 -25q-27 -80 -28 -89q0 -2 1 -2t2 -0.5t2 0.5l9 10l29 28l17 12q12 6 24 6q10 0 19 -3q18 -7 18 -24q0 -3 -2 -9q-4 -12 -15 -29q-23 -34 -59 -60
q-8 -6 -31 -21q-4 -3 -4.5 -5.5t2.5 -6.5q8 -11 14 -39l5 -47l6 -51q2 -10 4 -14q1 -3 4 -3.5t5 2.5q9 12 11 15l21 34q37 71 82 167l25 50l6 11q3 6 11 6q6 0 9 -2q7 -3 5 -10l-6 -13q-47 -104 -104 -218q-10 -19 -23 -41q-6 -13 -18 -22q-12 -10 -24 -10q-5 0 -8 1z
M102 451q39 39 60 71q12 19 16 34q2 8 2 11q0 4 -1 5q0 1 -2 2.5t-3 0.5q-6 -2 -9 -4q-7 -6 -19 -20q-29 -42 -50 -96q-1 -2 0 -4t2 -2zM37.5 213.5q1.5 0.5 3.5 2.5q47 32 76 76q4 5 5.5 9t3.5 7q2 4 2 7l-2 4q-1 1 -4 1q-3 -2 -6.5 -3.5t-7.5 -4.5q-25 -18 -43 -43
l-30 -45l-3 -7q0 -1 1 -2l2 -2q1 0 2.5 0.5z" />
    <glyph glyph-name="l" unicode="l" horiz-adv-x="150" 
d="M1 39.5q-11 7.5 -15 21.5q-2 10 -2 14q-5 37 -4 56q0 51 8 101q7 65 24 130q17 68 38 118q19 50 46 90q12 17 23 27q15 13 33 13q20 0 32 -15q4 -5 6 -15v-9q0 -8 -2 -22q-7 -29 -17 -48q-41 -74 -75 -117q-14 -20 -44 -58q-8 -12 -9 -19q-20 -95 -20 -173q0 -25 1 -37
q0 -21 4 -31q0 -1 0.5 -2.5t2.5 -3.5q1 -1 4 -1l7 6q16 19 26 39q36 69 58 129q3 9 17 44q6 15 17 30q4 5 11 5q5 0 8 -2q5 -4 4 -8l-7 -17q-2 -5 -11 -26l-16 -39q-20 -55 -52 -116q-7 -17 -22 -39q-8 -12 -13 -17q-15 -16 -34 -16q-16 0 -27 7.5zM69 394q4 3 7 7
q33 45 70 116q16 28 17 56v6v3q-1 2 -3.5 3t-4.5 0l-11 -9l-16 -23q-39 -63 -62 -151q-1 -2 -0.5 -3.5t0.5 -3.5l1 -1h2z" />
    <glyph glyph-name="m" unicode="m" horiz-adv-x="318" 
d="M182 64q-17 8 -20 25q-3 12 -3 24q0 8 1 13q4 50 27 131q13 43 27 80l5 18q1 2 0 3t-3 0q-6 -4 -17 -20q-20 -28 -42 -67l-26 -45q-4 -7 -14 -19q-6 -7 -17 -5l-11 4q-18 7 -16 26l3 23q2 14 2 19q0 2 -3 3l-2 -1q-2 -3 -5.5 -8t-7.5 -11l-23 -43l-14 -22q-8 -10 -21 -6
l-7 2q-13 6 -15 22q-1 4 -0.5 10t0.5 9q11 61 24 103l14 37q1 5 5.5 6.5t9.5 -0.5q6 -2 8.5 -5t1.5 -9q0 -13 -3 -25q-5 -27 -14 -67q-4 -14 -2 -21l2 -1h2l8 12l28 43l15 18q6 8 14 8q11 0 17.5 -5.5t7.5 -14.5v-36l1 -2q4 0 4 1q2 2 6 7l17 26q27 44 59 78q12 14 23 21
q6 4 12 4q9 0 17 -6t9 -15q0 -18 -4 -33l-10 -38l-12 -44q-22 -80 -24 -88q-5 -19 -7.5 -33.5t-4.5 -23.5q-1 -7 -1 -22q0 -3 3 -3q3 -1 6 2t4.5 6t3.5 5q21 32 55 98l39 76l10 18q5 6 11 6q5 0 8 -2q7 -4 4 -10l-1 -4q-6 -11 -7 -13l-15 -30q-38 -76 -46 -91
q-22 -43 -40 -72q-7 -12 -17 -23q-6 -7 -16 -7q-16 0 -23 4z" />
    <glyph glyph-name="n" unicode="n" horiz-adv-x="252" 
d="M95 74q-7 4 -9 14l-1 15q1 28 7 53t7 29q11 42 37 124l6 22l-1 2h-4q-2 -2 -4 -6l-41 -74l-47 -82q-5 -10 -12 -17q-7 -10 -19 -10q-5 0 -13 3l-4 1q-20 9 -17 31q2 26 4 40q8 56 23 98l9 24q2 5 5 8q5 5 11 4l6 -3q8 -4 7 -13q-2 -7 -4.5 -17.5t-4.5 -23.5
q-5 -22 -16 -83q-1 -4 -1 -12q0 -3 1 -5.5t3 -1.5l5 3q27 39 43 68l48 89q11 20 27 36q6 6 12 6t9 -2l6 -3q9 -5 11 -18q0 -15 -3 -30l-24 -93q-21 -84 -28 -119q0 -2 -1.5 -10t0.5 -14l1 -2q4 0 4 1q5 4 13 14q33 47 53 83q20 32 29 48q8 14 22 42l10 19q4 7 14 4
q4 -1 6.5 -4t0.5 -6q-3 -7 -11.5 -24.5t-15.5 -30.5l-79 -137l-18 -27q-6 -9 -19 -18q-8 -5 -16 -5q-16 0 -27 10z" />
    <glyph glyph-name="o" unicode="o" horiz-adv-x="204" 
d="M45 104q-56 21 -64 82l-1 9v10q3 80 50 142q11 15 22 23q10 9 24 9q9 0 16 -3q2 0 2 -1q2 -1 2.5 -4t-1.5 -4q-25 -22 -39.5 -50.5t-23.5 -64.5q-7 -23 -7 -61q0 -26 11 -47q7 -13 16 -20q4 -4 9 -4q4 0 8 3q9 5 16 17q11 22 12 25q6 21 6 40q0 33 -19 64l-16 26
q-1 1 -1 4q0 5 5 7q4 10 83 10q22 0 62 -2q11 -3 16 -9q2 -3 1 -5.5t-4 -3.5l-84 1q-17 0 -43 -2q-6 -3 -3 -9q8 -14 13 -20q18 -28 21 -62q2 -42 -16 -77q-1 -4 -5 -8q-15 -23 -47 -20q-7 1 -21 5z" />
    <glyph glyph-name="p" unicode="p" horiz-adv-x="187" 
d="M-56 -30q-4 4 -4 11v18q2 27 12 84q7 50 29 150l7 35q9 41 31 123l21 76q3 10 6.5 18t6.5 15l6 11q5 7 13 7q6 0 11 -5q3 -3 3 -6v-5q0 -10 -3 -21q-26 -124 -42 -185l-1 -5q-6 -26 -2 -24q5 3 7.5 10t4.5 10l20 40q12 20 21 28q10 8 15 11q10 6 20 6q13 0 26 -8
q11 -7 14 -22q1 -5 1 -13q0 -12 -3 -24q-9 -40 -34 -72q-4 -6 -14 -16q-15 -14 -32 -11q-19 2 -27 15q-2 4 -4.5 4t-4.5 -4l-2 -4q-18 -35 -25 -61q-21 -69 -31 -118l-8 -41q0 -7 -1 -10q-2 -11 -7.5 -15.5t-18.5 -5.5q-7 0 -11 4zM71.5 245.5q5.5 1.5 9.5 0.5q3 0 5 -1h2
q6 0 11 7q21 30 29 61l5 23q0 6 -1 9q0 3 -3.5 5t-5.5 0l-9 -7q-13 -11 -21 -28q-19 -33 -32 -65l-1 -4q2 -3 3 -3q3 1 8.5 2.5z" />
    <glyph glyph-name="q" unicode="q" horiz-adv-x="231" 
d="M11 -109q-4 10 -4 15q-1 10 -2.5 23.5t-1.5 22.5q0 10 1 15v17q2 40 7 70l5 32v3q0 7 -7 11l-22 12q-2 1 -6 5q-2 2 -1.5 4.5t2.5 3.5q7 5 14 8l30 13q6 3 9 10q16 42 20 53q1 2 0.5 4t-1.5 2h-5l-4 -2q-10 -5 -17 -5q-12 0 -27 10q-18 10 -16 31q0 12 4 21q12 44 39 80
l14 16q20 19 46 19q15 0 26 -5q4 -1 7 -3t6 -3l5 -2q4 0 8 7l18 30q5 9 10 16q5 8 15 8q8 0 13 -5q5 -3 3 -8q-3 -8 -7 -13l-15 -30q-53 -101 -79 -169q-1 -4 -7 -20q-1 -1 1 -4q1 -1 4 -1l4 2t4 3q56 39 89 77q1 1 35 38q9 9 21 8q10 -2 11 -7l1 -3q0 -2 -5 -7
q-38 -45 -65 -71q-49 -44 -98 -70q-16 -9 -18 -11.5t-8 -21.5v-2q-5 -20 -5 -21q0 -3 3 -6.5t7 -7t6 -5.5q31 -26 34 -70q1 -7 1 -22q0 -26 -7 -50q-4 -21 -17 -38q-18 -25 -45 -25q-8 0 -12 1q-15 1 -21 17zM38 250l7 6q20 17 36 37t37 49v2q0 1 0.5 2t-0.5 2q1 -2 -10 13
q-5 5 -11 2q-13 -5 -25 -21q-30 -41 -41 -86q-1 -1 -1 -4l3 -3q4 0 5 1zM60 -95q6 10 8 15q13 34 13 64q0 13 -1 20q-2 24 -12 43q-6 9 -7 10q0 1 -4 1q-3 0 -3 -3l-3 -11q-3 -19 -5 -57l-3 -34v-9q0 -9 2 -23q2 -10 2 -14q1 -3 2.5 -5t3.5 -2q5 0 7 5z" />
    <glyph glyph-name="r" unicode="r" horiz-adv-x="170" 
d="M-8 130q-10 5 -11 14l-1 24q1 16 4 36t4 29q15 84 32 144q2 6 4 9l3 3h3q5 0 10 -3.5t6 -7.5v-13q0 -22 -3 -41.5t-4 -24.5l-15 -102q0 -1 2 -5q1 -1 2.5 0t2.5 3l8 15l19 42q19 40 38 65q3 5 20 24q12 13 29 10l12 -3l3 -4q0 -1 -2 -3l-2 -2q-14 -1 -27 -18
q-23 -27 -40 -63q-12 -24 -17 -36l-12 -26l-19 -43q-8 -14 -10 -16q-9 -12 -20 -12q-6 0 -10 1q-6 2 -9 4z" />
    <glyph glyph-name="s" unicode="s" horiz-adv-x="176" 
d="M-21.5 20q-8.5 12 -8.5 26q0 5 2 13l10 24q22 40 53 78q6 7 9.5 11.5t3.5 7.5q0 4 -6 20q-21 54 -30 86q-6 23 -6 46q0 19 2 29q4 30 28 50q14 11 28 11q9 0 16 -3q8 -1 16 -6q20 -8 23 -33q0 -14 -1 -21q-5 -33 -16 -59l-3 -6q-4 -10 -16 -7q-9 2 -7 10q2 14 4 21
q7 22 10 53q1 2 1 7q0 8 -5 20q-2 2 -5 3t-5 0q-18 -9 -27 -34q-7 -16 -5 -36v-7q0 -15 3 -29q9 -37 29 -80q2 -3 4.5 -3.5t4.5 1.5l14 12l60 60l24 23q4 4 9 4t10 -3q7 -3 2 -10l-9 -10l-91 -89q-2 -3 -5 -5q-8 -7 -8 -17q0 -5 1 -8q7 -21 7 -45q0 -21 -5 -46
q-7 -42 -43 -68q-16 -11 -31 -11q-9 0 -18 3q-15 5 -23.5 17zM50 69q6 21 6 40q1 5 1 14q0 8 -2 11q0 2 -2 4q-2 1 -3.5 0.5t-2.5 -2.5q-26 -30 -43 -69q-4 -10 -4 -16v-5q0 -12 7 -22q6 -8 14 -2q21 20 29 47z" />
    <glyph glyph-name="t" unicode="t" horiz-adv-x="174" 
d="M-41 -15q-5 7 -8 19q-4 26 -4 38q4 45 7 65q16 118 66 262l10 29l1 3q0 3 -3 5t-7 1l-30 -7l-37 -8q-9 0 -14 1q-3 0 -6 3.5t-4 7.5q0 3 1 4q3 1 6 3t7 3l73 20q3 0 4 1q8 2 15 4t10.5 7t8.5 16q9 22 29 64q8 19 19 33q4 6 10 6q8 0 13 -8q3 -3 2 -6q0 -6 -2 -14l-23 -67
q-2 -8 -2 -11q0 -1 3 -4q4 0 7 1q9 1 29 5l33 6q21 4 76 13l49 9q7 2 11 -2q7 -9 4 -17q-2 -5 -5 -6q-13 -4 -18 -5q-52 -9 -55 -9q-51 -7 -110 -20l-26 -5l-9 -3q-4 -3 -7 -7q-1 -1 -2 -4t-1 -4l-13 -38q-15 -42 -26 -76q-12 -41 -23.5 -85t-17.5 -81q-5 -29 -11 -87
q-1 -7 -0.5 -13t0.5 -10q0 -2 0.5 -7t6.5 -7h1q5 0 9 9q20 27 27 38q30 51 88 153q5 8 10.5 18.5t12.5 22.5l33 60l7 9q2 2 5 2t8 -3q6 -3 4 -10q-4 -8 -7 -12q-22 -42 -68 -124l-33 -57q-12 -20 -17 -31q-9 -16 -39 -62l-13 -19l-6 -7q-13 -19 -39 -17q-13 2 -20 12z" />
    <glyph glyph-name="u" unicode="u" horiz-adv-x="211" 
d="M88 144q-5 13 -5 23v16q0 16 2 24l1 7q2 10 -1 11h-1q-3 0 -8 -9q-2 -2 -10 -16l-30 -48l-11 -15q-7 -8 -19 -8q-11 0 -20 6q-8 4 -13 16q-4 13 -2 32q8 53 9 58q9 41 24 82l9 19q5 8 17 6l6 -3q8 -3 8 -11q0 -3 -0.5 -8.5t-2.5 -12.5q-5 -25 -7 -34l-7 -35
q-6 -36 -8 -53q-1 -3 1 -10l1 -1h2q5 3 8 8q26 37 42 71l24 43q5 9 10 16q7 10 16 10q5 0 12 -4q7 -3 7 -9q1 -6 1 -21l-8 -61l-6 -49v-14q0 -1 4 -3l2 1l7 9l44 73l33 59q4 7 14 7q5 -1 7 -4.5t0 -7.5l-8 -17l-21 -37q-38 -66 -56 -100q-2 -4 -8 -12q-8 -14 -25 -14
q-8 0 -18 4q-11 4 -16 16z" />
    <glyph glyph-name="v" unicode="v" horiz-adv-x="163" 
d="M6 63q-14 3 -19 18q-4 17 -5 23q-2 11 -2 32t1 32v16q1 64 20 146l9 29q3 9 14 7l9 -3q6 -4 6 -10q1 -3 1 -9l-6 -54q-4 -29 -5 -46q-6 -82 -6 -122q0 -3 2 -9l1 -2q4 0 5 1q3 4 4.5 7.5t3.5 6.5q21 42 42 107q19 52 43 127q1 5 5 15q3 8 11 8q5 0 8 -2q5 -2 5 -7
q-2 -12 -4 -19q-9 -25 -25 -75q-22 -72 -43 -125q-18 -42 -28 -62q-3 -8 -13 -22q-9 -13 -25 -10q-3 0 -9 2z" />
    <glyph glyph-name="w" unicode="w" horiz-adv-x="276" 
d="M49 25q-8 14 -9 24q-5 38 -5 46l7 68l1 9q0 4 -2 4q-4 0 -4 -2q-1 -1 -10 -13l-15 -18q-8 -8 -22 -8q-12 2 -18 5q-10 6 -12 19q0 13 1 19q9 66 48 142l2 4q4 5 10 5l5 -1q13 -3 11 -16q-8 -30 -11 -45l-19 -71v-7v-1t1 -1q3 0 4 1q3 3 7 9l30 50l11 19q1 2 5 4q2 1 7 1
q8 0 14 -4.5t7 -11.5q1 -4 1 -14q0 -9 -1 -14q-2 -29 -6 -56q-3 -33 -3 -65q0 -31 1 -46q2 -14 6 -25q1 -2 4 -2t4 1q7 7 8 9q8 12 18 40q7 22 18 73q13 58 15 119q0 8 3 12t12 5q23 3 67 15q22 7 29 8q4 1 9 2t12 1q6 0 9 -1q2 0 6 -2q1 -1 1 -3.5t-1 -3.5l-6 -3l-82 -21
q-7 -2 -23 -4q-8 -2 -10 -9v-12q-2 -75 -33 -185q-2 -11 -10 -28q-3 -8 -8 -17q-7 -12 -18.5 -18.5t-25.5 -6.5q-12 0 -24 6q-10 4 -16 15z" />
    <glyph glyph-name="x" unicode="x" horiz-adv-x="253" 
d="M-69.5 78.5q-1.5 3.5 0.5 7.5l13 17l70 89l5 5q5 9 4 15v5q-3 21 -3 41q0 23 4 65q1 9 3 15.5t3 11.5q0 5 5 7l8 2q7 0 12.5 -3.5t6.5 -9.5q1 -5 1 -14v-17v-9l3 -40q0 -1 2 -2t4 0l5 4l12 15l60 66q4 4 26 24q4 4 13 1q4 -2 5 -5t-1 -6l-17 -19q-48 -52 -92 -104
q-3 -5 -6.5 -9t-5.5 -8.5t-2 -8.5l2 -19q8 -44 17 -66l10 -21q2 -2 5.5 -3t5.5 0q1 1 16 13q15 14 28 33l63 90l21 34l21 34q7 9 19 6q3 -1 4.5 -3.5t0.5 -4.5l-6 -13l-76 -113l-27 -42q-16 -23 -29 -36q-17 -18 -42 -17q-16 2 -23 4q-17 6 -28 21q-9 14 -15 32l-6 18
q-1 3 -4 3.5t-5 -2.5q-7 -7 -13 -16l-42 -54l-14 -15q-7 -7 -15 -4q-5 2 -6.5 5.5z" />
    <glyph glyph-name="y" unicode="y" horiz-adv-x="217" 
d="M-5 -73q-8 0 -24 6q-6 2 -13 13q-8 18 -8 33q0 11 2 17q4 11 12 26q14 25 28 40l76 89q8 8 11 13q4 4 6 12q1 5 15 80l6 36q1 0 1 2q-1 1 -1 3t-1 3q-2 2 -6 -2l-19 -26l-29 -34q-6 -8 -17 -13q-8 -3 -14 -2q-6 2 -11 4q-24 9 -24 32q0 6 1 9q4 36 26 80q2 4 4 5q2 2 6 4
h4q10 0 17 -8q2 -4 2 -9q-1 -7 -5 -23l-9 -31q-2 -8 -2 -12q-1 -3 0 -5t2 -3q3 0 7 2l19 20q18 21 36 47l27 36q5 6 12 6q4 0 9 -2.5t7 -5.5l3 -6v-17q-3 -19 -4 -28l-10 -70v-11l1 -2q3 -2 5 0l15 14q21 21 61 65q5 6 13 6q7 0 11 -3q2 -1 3 -4.5t0 -5.5l-9 -10
q-18 -17 -78 -82q-24 -27 -25 -28q-7 -7 -9 -19l-7 -39q-8 -44 -22 -81q-18 -44 -28 -65q-8 -18 -20 -32q-18 -21 -49 -24h-4zM-7 -56q7 0 16 11q3 3 7 9q10 16 14 25q22 49 34 89l5 21l1 2q1 3 0.5 5.5t-2.5 2.5l-6 -3q-33 -34 -60 -72q-13 -18 -19 -32q-7 -14 -7 -28
q0 -6 1 -11q1 -2 3.5 -9.5t9.5 -9.5h3z" />
    <glyph glyph-name="z" unicode="z" horiz-adv-x="260" 
d="M-31.5 -35q-8.5 9 -8.5 25q0 29 19 58t39 50l70 71l11 11q18 13 16 40l-1 4q-1 16 -11 16l-9 -2q-25 -9 -46 -24q-5 -4 -11 -4q-8 0 -15 6l-1 1q-3 3 -2 7l4 5l15 16q39 50 69 100q1 2 5 8.5t4 13.5q0 2 -2 3.5t-3 0.5l-4 -1q-4 -2 -6 -4q-14 -9 -40 -29l-20 -20
q-6 -6 -12 -6t-9 2l-8 5q-4 4 -2 9q5 14 15 23q28 23 54 38l11 5q7 4 16 4q11 0 27 -9q14 -9 14 -23q0 -3 -2 -9q-5 -16 -12 -28l-32 -49q-2 -3 -3.5 -6.5t-4.5 -7.5q-1 -1 0 -3t3 -3l9 -2q26 -3 38 -21l4 -5q1 -1 2.5 -1.5t2.5 0.5q6 4 9 7l87 69q8 7 19 13q5 3 8 3l8 -2
q7 -3 7 -8q0 -3 -5 -8l-66 -50q-21 -17 -40 -34l-19 -16q-8 -6 -8 -16q-4 -43 -20 -83t-43 -85q-10 -17 -28 -38q-12 -19 -33 -26q-9 -3 -11 -3q-4 -1 -11 -1h-10q-19 4 -27.5 13zM7 -17q11 9 22 25q31 42 60 106l6 18q0 3 -1 4q-4 0 -4 -1l-24 -22q-36 -38 -51 -59
q-2 -3 -16 -25q-10 -19 -11 -40l2 -8q0 -2 3 -3.5t4 -0.5z" />
    <glyph glyph-name="b.ss01" unicode="&#xe000;" horiz-adv-x="194" 
d="M37 122q-4 12 -4 28q0 9 1 14q9 32 22 54q-1 -2 10 13q3 3 7.5 3.5t8.5 -0.5q2 -1 3 -3.5t0 -4.5l-5 -10q-9 -15 -14 -38q-4 -14 -4 -22q0 -10 2 -15q0 -3 3 -3l4 2q5 7 5 8q37 74 48 132q5 24 3 49q0 3 -2 9q0 3 -6 3l-8 -4q-11 -8 -29 -28q-31 -39 -51 -87
q-7 -18 -9 -38l-1 -26l-3 -16q-2 -9 -10 -9q-4 -1 -14 -1q-12 1 -13 14q-1 5 -1 16v33q0 46 8 99q9 57 35 150l3 12q1 2 1 6q0 6 -9 7q-6 2 -11 2q-71 13 -152 48l-46 18q-20 6 -38 6q-26 0 -54 -11q-24 -10 -35 -30q-2 -6 -12 -3l-4 3q-2 2 -3 5t1 5q9 19 29 30
q22 12 49 15q6 1 19 1q26 0 46 -8q27 -8 55 -21q65 -27 118 -39q13 -3 39 -7l6 -1q6 0 9 2.5t6 9.5q15 34 31 60q14 23 36 44q10 8 15 11q12 9 26 9q7 0 19 -4q15 -6 22 -14t7 -20q0 -11 -2 -17q-6 -25 -19 -45q-17 -27 -45 -39q-26 -10 -39 -11q-3 0 -11 -2t-9 -7l-10 -34
q-21 -92 -28 -131v-3q0 -3 2 -3q1 0 4.5 3.5t4.5 5.5q6 7 11 14t11 14q14 16 27 25q12 9 28 9q10 0 19 -3q12 -5 17 -16q4 -7 6 -23q2 -39 -8 -72q-16 -54 -38 -96q-9 -19 -25 -34q-16 -13 -35 -10q-16 3 -20 17zM143 517q19 24 27 56l2 15l-1 6q-1 4 -4.5 6t-6.5 0
q-6 -2 -9 -4q-3 -3 -9 -8t-9 -10q-26 -29 -48 -83q-1 -1 -1 -4q0 -2 3 -4q1 -1 4 -1q33 8 52 31z" />
    <glyph glyph-name="d.ss01" unicode="&#xe001;" horiz-adv-x="259" 
d="M102 70l-6 20q-5 25 -5 71q1 10 1 30q0 2 1 7.5t-4 6.5h-1q-3 0 -5 -3.5t-3 -4.5q-18 -21 -17 -20q-5 -6 -12 -12q-13 -12 -30 -12q-9 0 -18 3q-24 6 -30 30q-5 15 -3 30q6 57 45 104q18 23 51 23q12 0 27 -5q3 -1 16 -9l7 27q21 80 23 88l3 12q1 2 1 6q0 6 -9 7
q-6 2 -11 2q-71 13 -152 48l-46 18q-20 6 -38 6q-26 0 -54 -11q-24 -10 -35 -30q-2 -6 -12 -3l-4 3q-2 2 -3 5t1 5q9 19 29 30q22 12 49 15q6 1 19 1q26 0 46 -8q27 -8 55 -21q65 -27 118 -39q13 -3 39 -7l6 -1q6 0 9 2.5t6 9.5q15 34 31 60q14 23 36 44q10 8 15 11
q12 9 26 9q7 0 19 -4q15 -6 22 -14t7 -20q0 -11 -2 -17q-6 -25 -19 -45q-16 -27 -45 -39q-26 -10 -39 -11q-3 0 -11 -2t-9 -7l-10 -34q-21 -92 -28 -131q-17 -105 -17 -172l1 -20q0 -7 4 -21q2 -5 5 -5.5t7 3.5q2 3 5.5 6.5t6.5 7.5q18 26 26 42l32 68l38 91l6 13
q2 4 7.5 5.5t9.5 -1.5q3 -3 3 -5q1 -3 0.5 -4.5t-0.5 -2.5q-1 -3 -5 -14l-62 -144q-14 -30 -33 -57q-6 -10 -19 -21q-12 -12 -30 -12q-22 0 -32 19zM259 517q19 24 27 56l2 15l-1 6q-1 4 -4.5 6t-6.5 0q-6 -2 -9 -4q-3 -3 -9 -8t-9 -10q-26 -29 -48 -83q-1 -1 -1 -4
q0 -2 3 -4q1 -1 4 -1q33 8 52 31zM24 182q2 0 4.5 2.5t4.5 3.5l3 3q41 37 72 103q0 2 1 3q2 5 -4 7q-11 3 -14 15q0 2 -3 3q-1 2 -6 4q-3 0 -9 -2q-12 -4 -21 -18q-33 -49 -36 -110q0 -10 4 -13q1 -1 4 -1z" />
    <glyph glyph-name="g.ss01" unicode="&#xe002;" horiz-adv-x="226" 
d="M1 -112q-16 0 -31 12q-14 10 -19 29q-3 12 -3 23q0 22 12 43q15 29 49 32h11q19 0 29 -1h3q6 0 9 8l16 56q2 8 7 31l35 140l2 8l-2 4h-2l-11 -9l-20 -20l-31 -29q-11 -10 -24 -18q-10 -7 -23 -7q-12 0 -26 8q-12 6 -14 21q0 12 1 18q10 49 49 85l5 4q20 16 44 16
q22 0 43 -15l7 -6q3 -2 7 0l13 13l15 16q5 5 14 5q6 0 10 -2q6 -4 6 -10q0 -4 -4 -18l-31 -106q-7 -29 -8 -37q-14 -63 -26 -103q-5 -21 -17 -61q-1 -2 -1 -6q0 -5 6 -8q13 -7 37 -23l23 -14q32 -17 61 -30q9 -4 21 -6.5t18 -3.5l16 -2l11 -1q31 0 56 22q16 14 16 33
q0 12 -9 15q-2 0 -11 5q-3 3 -2 6q0 3 4 5q2 1 7 1q21 -6 33 -25q5 -10 5 -17q0 -8 -3 -14q-5 -15 -20 -26q-31 -21 -67 -20q-64 5 -104 26q-7 5 -21 10q-17 8 -49 28q-3 2 -25 16l-6 2q-5 0 -8 -6l-9 -21q-12 -28 -21 -40l-22 -24q-6 -6 -14 -9q-9 -3 -17 -3zM34 235
q35 27 62 57l3 3q1 2 1 5v2q-4 10 -7 15q-2 4 -6.5 5.5t-9.5 -0.5q-14 -8 -19 -14q-29 -32 -39 -69q-1 -2 -1 -7q0 -1 2.5 -2.5t3.5 -0.5zM10.5 -79.5q6.5 8.5 7.5 10.5q20 31 31 70l1 4q0 6 -8 8h-6q-18 1 -34 -7.5t-24 -29.5q-6 -18 -6 -29l1 -8q2 -18 11 -30
q2 -2 5.5 -2.5t5.5 1.5q9 4 15.5 12.5z" />
    <glyph glyph-name="h.ss01" unicode="&#xe003;" horiz-adv-x="265" 
d="M120 55q-10 0 -21 6q-14 7 -15 20q-1 6 -1 19q-1 52 17 130l22 84q2 8 2 11q0 2 -1 2q-1 1 -4 1l-8 -8q-4 -6 -11.5 -16.5t-11.5 -18.5l-50 -94q-10 -21 -13 -25q-6 -9 -16 -8q-6 0 -14 2q-9 3 -12 8t-3 13q-1 20 7 56q6 34 21.5 100.5t26.5 106.5l3 12q1 2 1 6q0 6 -9 7
q-6 2 -11 2q-71 13 -152 48l-46 18q-20 6 -38 6q-26 0 -54 -11q-24 -10 -35 -30q-2 -6 -12 -3l-4 3q-2 2 -3 5t1 5q9 19 29 30q22 12 49 15q6 1 19 1q26 0 46 -8q27 -8 55 -21q65 -27 118 -39q13 -3 39 -7l6 -1q6 0 9 2.5t6 9.5q15 34 31 60q14 23 36 44q10 8 15 11
q12 9 26 9q7 0 19 -4q15 -6 22 -14t7 -20q0 -11 -2 -17q-6 -25 -19 -45q-16 -27 -45 -39q-26 -10 -39 -11q-3 0 -11 -2t-9 -7l-10 -34q-25 -112 -32 -148q-3 -8 -1 -17v1q5 2 9 10l18 31q16 26 27 38q5 6 17 16q10 8 21 8q14 0 22 -7.5t8 -20.5v-9q0 -14 -3 -28l-24 -110
q-11 -51 -11 -84v-12q0 -2 1 -3.5t2 -2.5t3.5 0t4.5 3q6 4 10 10q21 29 26 36q32 48 64 112q13 26 25 46q3 5 11 15q4 4 11 4t11 -3l2 -4q0 -1 -0.5 -3.5t-2.5 -5.5q-19 -32 -40 -73q-31 -60 -58 -104q-19 -31 -39 -50q-15 -11 -22 -13q-8 -2 -13 -2zM155 517q19 24 27 56
l2 15l-1 6q-1 4 -4.5 6t-6.5 0q-6 -2 -9 -4q-3 -3 -9 -8t-9 -10q-26 -29 -48 -83q-1 -1 -1 -4q0 -2 3 -4q1 -1 4 -1q33 8 52 31z" />
    <glyph glyph-name="j.ss01" unicode="&#xe004;" horiz-adv-x="117" 
d="M14.5 407q-11.5 8 -10.5 21v5q0 12 8 26q3 5 8 6.5t10 -1.5q12 -6 23 -23q2 -2 2 -9q0 -15 -13 -26l-4 -3q-12 -4 -23.5 4zM-93 -109q-9 19 -9 40q0 14 4 26q8 30 41 42q7 2 39 7q10 2 10 10l4 59q2 120 4 179l3 31q0 15 2 31l3 16q3 7 10 7q15 0 16 -12q2 -7 2 -21
q1 -10 0.5 -39t-0.5 -35v-54q0 -71 -3 -106q0 -14 -2 -42l-1 -21v-3q0 -8 8 -9q18 -7 23 -8q19 -8 43 -15q18 -6 38.5 -11t27.5 -6q12 -2 17 -2l24 1q4 0 7.5 1t8.5 1q39 3 60 35q10 15 10 27q0 5 -1 8q-3 12 -12 13q-4 0 -7 1t-5 2q-1 0 -2.5 1.5t-0.5 2.5q0 3 3 6
q1 0 3 1.5t3 0.5q22 0 38 -16q11 -11 9 -31q-3 -18 -14 -28q-25 -27 -61 -35q-26 -3 -52 -3q-33 0 -56 6q-11 4 -22 5q-32 8 -54 17q-6 3 -28 10q-2 1 -5 1q-6 0 -8 -8q-3 -18 -4 -23q-6 -30 -12 -43q-8 -16 -16 -28q-4 -7 -12 -12q-13 -8 -25 -8q-11 0 -23 6q-16 7 -26 25z
M-50 -123q3 0 5 2q9 8 17 28q13 32 15 75v2q0 9 -9 9l-6 -2q-18 -3 -31.5 -14.5t-16.5 -33.5q-1 -5 -1 -15q0 -12 4 -23q5 -18 17 -26q3 -2 6 -2z" />
    <glyph glyph-name="k.ss01" unicode="&#xe005;" horiz-adv-x="229" 
d="M69 -1q-22 5 -26 24q-7 20 -8 37q-2 21 -4 63q-2 28 -5 42q-2 8 -4 11q-2 5 -6 5q-2 0 -6 -4q-10 -19 -15 -42l-9 -42q-2 -6 -4 -8q-2 -3 -7 -5h-4q-2 0 -10 2q-6 2 -8.5 5.5t-2.5 10.5v8q3 32 7 50.5t18 64.5q29 92 65 223l3 12q1 2 1 6q0 6 -9 7q-6 2 -11 2
q-71 13 -152 48l-46 18q-20 6 -38 6q-26 0 -54 -11q-24 -10 -35 -30q-2 -6 -12 -3l-4 3q-2 2 -3 5t1 5q9 19 29 30q22 12 49 15q6 1 19 1q26 0 46 -8q27 -8 55 -21q65 -27 118 -39q13 -3 39 -7l6 -1q6 0 9 2.5t6 9.5q15 34 31 60q14 23 36 44q10 8 15 11q12 9 26 9
q7 0 19 -4q15 -6 22 -14t7 -20q0 -11 -2 -17q-6 -25 -19 -45q-16 -27 -45 -39q-26 -10 -39 -11q-3 0 -11 -2t-9 -7l-10 -34q-4 -20 -18 -62q-2 -8 -10 -33.5t-11 -44.5q0 -2 1 -2t2 -0.5t2 0.5l9 10l29 28l17 12q12 6 24 6q10 0 19 -3q18 -7 18 -24q0 -3 -2 -9
q-4 -12 -15 -29q-23 -34 -59 -60q-8 -6 -31 -21q-4 -3 -4.5 -5.5t2.5 -6.5q8 -11 14 -39l5 -47l6 -51q2 -10 4 -14q1 -3 4 -3.5t5 2.5q9 12 11 15l21 34q37 71 82 167l25 50l6 11q3 6 11 6q6 0 9 -2q7 -3 5 -10l-6 -13q-47 -104 -104 -218q-10 -19 -23 -41q-6 -13 -18 -22
q-12 -10 -24 -10q-5 0 -8 1zM160 517q19 24 27 56l2 15l-1 6q-1 4 -4.5 6t-6.5 0q-6 -2 -9 -4q-3 -3 -9 -8t-9 -10q-26 -29 -48 -83q-1 -1 -1 -4q0 -2 3 -4q1 -1 4 -1q33 8 52 31zM37.5 213.5q1.5 0.5 3.5 2.5q47 32 76 76q4 5 5.5 9t3.5 7q2 4 2 7l-2 4q-1 1 -4 1
q-3 -2 -6.5 -3.5t-7.5 -4.5q-25 -18 -43 -43l-30 -45l-3 -7q0 -1 1 -2l2 -2q1 0 2.5 0.5z" />
    <glyph glyph-name="l.ss01" unicode="&#xe006;" horiz-adv-x="150" 
d="M1 39.5q-11 7.5 -15 21.5q-2 10 -2 14q-5 37 -4 56q0 51 8 101q7 41 21 110t23 102l3 12q1 2 1 6q0 6 -9 7q-6 2 -11 2q-71 13 -152 48l-46 18q-20 6 -38 6q-26 0 -54 -11q-24 -10 -35 -30q-2 -6 -12 -3l-4 3q-2 2 -3 5t1 5q9 19 29 30q22 12 49 15q6 1 19 1q26 0 46 -8
q27 -8 55 -21q65 -27 118 -39q13 -3 39 -7l6 -1q6 0 9 2.5t6 9.5q15 34 31 60q14 23 36 44q10 8 15 11q12 9 26 9q7 0 19 -4q15 -6 22 -14t7 -20q0 -11 -2 -17q-6 -25 -19 -45q-16 -27 -45 -39q-26 -10 -39 -11q-3 0 -11 -2t-9 -7l-10 -34q-29 -128 -36 -166
q-11 -64 -11 -126q0 -24 1 -36q0 -21 4 -31q0 -1 0.5 -2.5t2.5 -3.5q1 -1 4 -1l7 6q16 19 26 39q36 69 58 129q3 9 17 44q6 15 17 30q4 5 11 5q5 0 8 -2q5 -4 4 -8l-7 -17q-2 -5 -11 -26l-16 -39q-20 -55 -52 -116q-7 -17 -22 -39q-8 -12 -13 -17q-15 -16 -34 -16
q-16 0 -27 7.5zM152 517q19 24 27 56l2 15l-1 6q-1 4 -4.5 6t-6.5 0q-6 -2 -9 -4q-3 -3 -9 -8t-9 -10q-26 -29 -48 -83q-1 -1 -1 -4q0 -2 3 -4q1 -1 4 -1q33 8 52 31z" />
    <glyph glyph-name="t.ss01" unicode="&#xe007;" horiz-adv-x="174" 
d="M-41 -15q-5 7 -8 19q-4 26 -4 38q4 45 7 65q16 118 66 262l10 29l1 3q0 3 -3 5t-7 1l-30 -7l-37 -8q-9 0 -14 1q-3 0 -6 3.5t-4 7.5q0 3 1 4q3 1 6 3t7 3l73 20q3 0 4 1q8 2 15 4t10.5 7t8.5 16q9 22 29 64q8 19 19 33q4 6 10 6q8 0 13 -8q3 -3 2 -6q0 -6 -2 -14l-23 -67
q-2 -8 -2 -11q0 -1 3 -4q4 0 7 1q9 1 29 5l33 6l516 78q85 12 123 18t46 7l49 9q7 2 11 -2q7 -9 4 -17q-2 -5 -5 -6q-13 -4 -18 -5q-52 -9 -55 -9q-130 -19 -422 -64t-323 -51l-9 -3q-4 -3 -7 -7q-1 -1 -2 -4t-1 -4l-13 -38q-15 -42 -26 -76q-12 -41 -23.5 -85t-17.5 -81
q-5 -29 -11 -87q-1 -7 -0.5 -13t0.5 -10q0 -2 0.5 -7t6.5 -7h1q5 0 9 9q20 27 27 38q30 51 88 153q5 8 10.5 18.5t12.5 22.5l33 60l7 9q2 2 5 2t8 -3q6 -3 4 -10q-4 -8 -7 -12q-22 -42 -68 -124l-33 -57q-12 -20 -17 -31q-9 -16 -39 -62l-13 -19l-6 -7q-13 -19 -39 -17
q-13 2 -20 12z" />
    <glyph glyph-name="y.ss01" unicode="&#xe008;" horiz-adv-x="207" 
d="M10 -72q-16 0 -29 10q-13 9 -22 29q-3 13 -3 27q0 22 9 39q13 27 47 35q5 1 17 1q15 0 23 -1q10 0 11 9l13 57q19 103 31 160q-1 1 -1 3t-1 3q-2 2 -6 -2l-19 -26l-29 -34q-6 -8 -17 -13q-8 -3 -14 -2q-6 2 -11 4q-24 9 -24 32q0 6 1 9q4 36 26 80q2 4 4 5q2 2 6 4h4
q10 0 17 -8q2 -4 2 -9q-1 -7 -5 -23l-9 -31q-2 -8 -2 -12q-1 -3 0 -5t2 -3q3 0 7 2l19 20q18 21 36 47l27 36q5 6 12 6q4 0 9 -2.5t7 -5.5l3 -6v-17q-9 -56 -10 -63q-5 -24 -10 -62q-3 -15 -8 -44.5t-10 -50.5l-13 -62q-1 -2 -1 -5q0 -7 7 -8q7 -4 26 -15t35 -18
q15 -9 34.5 -16.5t28.5 -11.5t21.5 -5t18.5 -2q4 -1 8 -0.5t8 -0.5q39 -3 65 25q15 17 14 33q-2 13 -10 15l-11 5q-1 0 -2 1.5t0 2.5q0 3 4 6q4 2 6 1q22 -3 35 -22q6 -7 6 -18q0 -4 -2 -14q-8 -19 -18 -25q-29 -23 -66 -25q-34 2 -58.5 6t-47.5 14q-11 5 -21 8
q-28 12 -51 26q-6 4 -13 7t-13 7q-4 2 -6 2q-5 0 -8 -7q-5 -17 -7 -22q-3 -6 -8.5 -19t-10.5 -22l-20 -25q-7 -7 -14 -10q-9 -4 -19 -4zM26 -28q18 29 27 72l1 4q0 6 -8 8q-5 0 -7 -1q-17 1 -32.5 -9t-22.5 -31q-4 -11 -4 -25q0 -8 1 -13q4 -20 13 -28q3 -3 6 -3.5t5 1.5
q12 8 21 25z" />
    <glyph glyph-name="z.ss01" unicode="&#xe009;" horiz-adv-x="230" 
d="M30 -42q-17 0 -31 12q-15 11 -20 31q-2 14 -2 20q0 23 12 45q16 28 50 32q9 1 21 -0.5t18 -1.5h3q8 0 9 7l18 57q8 30 8 51q0 34 -22 27q-25 -9 -46 -24q-5 -4 -11 -4q-8 0 -15 6l-1 1q-3 3 -2 7l4 5l15 16q39 50 69 100q1 2 5 8.5t4 13.5q0 2 -2 3.5t-3 0.5l-4 -1
q-4 -2 -6 -4q-14 -9 -40 -29l-20 -20q-6 -6 -12 -6t-9 2l-8 5q-4 4 -2 9q5 14 15 23q28 23 54 38l11 5q7 4 16 4q11 0 27 -9q14 -9 14 -23q0 -3 -2 -9q-5 -16 -12 -28l-32 -49q-2 -3 -3.5 -6.5t-4.5 -7.5q-1 -1 0 -3t3 -3l9 -2q47 -6 47 -59q0 -23 -9 -50q-2 -10 -8 -30
l-9 -30q-2 -4 -2 -6q0 -5 7 -8q46 -30 59 -37q15 -10 34 -19.5t26 -12.5q9 -4 21.5 -6.5t18.5 -3.5q3 -1 7.5 -1t8.5 -1q5 -1 14 -1q30 0 52 22q17 12 17 32q0 11 -9 15q-4 1 -6.5 3t-4.5 3q-1 0 -2 1.5t0 2.5q2 4 5 5q4 2 6 1q21 -4 33 -24q5 -10 5 -17t-3 -15
q-6 -14 -20 -25q-30 -20 -67 -20q-34 5 -58.5 11t-46.5 17l-20 10q-30 15 -49 28l-25 17l-6 2q-5 0 -8 -6l-9 -22q-12 -25 -22 -39q-7 -9 -22 -24q-6 -6 -14 -9q-9 -3 -16 -3zM36 -11.5q6 6.5 10 12.5q20 30 32 70l1 4q0 6 -8 9q-5 0 -6 -1q-18 2 -34 -7t-24 -29
q-6 -18 -6 -28l1 -9q0 -19 10 -29q6 -6 11 -3q7 4 13 10.5z" />
    <glyph glyph-name="l_l" horiz-adv-x="338" 
d="M17 -8q-22 8 -29 28q-8 28 -8 42v15q0 65 8 140q8 70 15 104q30 147 94 267q18 33 32 50q12 14 20 20q10 9 24 9q12 0 22 -7q17 -9 17 -28q0 -14 -7 -35q-19 -62 -49 -114q-52 -88 -97 -150q-8 -9 -11 -23q-12 -71 -15 -110l-2 -25q-4 -41 -6 -85q0 -14 2 -42q0 -4 4 -14
q0 -1 2 -1t4 1q2 3 4 5.5t4 5.5q20 34 29 51q24 50 52 98q9 18 10 31q15 120 69 256q22 52 49 96q15 26 38 44q11 10 20 12q10 3 19 1l12 -6q19 -10 15 -29q-1 -10 -3 -17.5t-3 -12.5q-14 -48 -47 -115q-39 -79 -89 -168q-18 -31 -21 -35q-12 -18 -13 -37q-2 -20 -2 -31
q-4 -40 -4 -61q0 -15 4 -28q3 -11 14 -4q13 9 27 25q47 52 72 96l42 71l15 24q5 6 12 6q8 0 13 -5t2 -11l-7 -12l-46 -80q-30 -52 -68 -101q-15 -20 -31 -32q-6 -5 -20 -13q-4 -4 -11 -4q-22 0 -37 11t-22 31l-5 20q0 2 -1 3t-2 1q-3 0 -3 -2q-6 -7 -9 -17l-38 -78l-9 -17
q-2 -4 -9 -11t-17 -7q-17 0 -25 4zM83 422.5q1 -0.5 2 0.5q43 64 66 116q20 42 28 77q1 3 2 7t1 6q0 5 -2 5q-5 0 -6 -1l-13 -17q-4 -7 -9.5 -16.5t-11.5 -22.5q-28 -60 -56 -139q-1 -2 -4 -11v-3l1 -2q1 1 2 0.5zM225 367q6 12 10 18q46 86 64 131q6 13 16 39l12 36
q1 3 0.5 5.5t-2.5 2.5q-5 1 -8 -4l-12 -15q-14 -24 -18 -32q-34 -65 -64 -159l-8 -25q0 -3 1 -4q0 -1 0.5 -1h0.5q3 1 8 8z" />
    <glyph glyph-name="s_s" horiz-adv-x="345" 
d="M-20 -37q-17 7 -27 21t-7 35q2 12 4 18q9 35 31 63l27 35l14 16q10 10 7 21q-2 7 -4 18.5t-4 18.5q-8 30 -16 90q-1 5 -1 15q0 22 6 41q7 26 27 44q8 6 16 9q10 4 17 4q3 0 11 -2q4 -2 9.5 -3.5t12.5 -5.5q21 -11 21 -33q0 -40 -29 -71q-8 -8 -18 -3q-2 1 -3.5 4t-0.5 4
q3 5 7 15q6 9 12 33q2 16 1 24q-2 7 -6 10h-1q-5 0 -9 -4q-17 -17 -22 -44q-4 -15 -4 -32q0 -11 1 -17q4 -44 11 -74q2 -6 4 -8l4 -2q2 0 4 2l82 71q7 7 7 17v17q-1 33 10 69q8 25 23 43q14 15 31 22q8 2 11 2q6 0 12 -3q6 -1 12 -6q21 -12 17 -35q-1 -11 -6 -22
q-14 -33 -34 -57q-8 -11 -26 -33q-9 -9 -7 -21l8 -49q1 -4 4 -5.5t6 1.5l27 19l16 12q51 37 72 55q3 3 9 7q5 4 11 4q5 0 13 -5q2 -2 2.5 -4.5t-0.5 -4.5l-6 -7q-22 -19 -27 -23l-64 -48l-46 -36q-11 -9 -8 -21q2 -10 2 -16q2 -14 2 -22q0 -16 -6 -46q-5 -17 -14 -27
q-16 -18 -37 -15q-19 2 -31.5 15.5t-12.5 30.5q0 4 2 14q5 18 14 30l29 37q8 11 7 22q-3 14 -7 44l-3 6q-2 3 -4 1l-10 -6l-62 -58l-9 -8q-9 -9 -6 -21l6 -35l1 -5q1 -7 1 -21q0 -44 -16 -80q-4 -11 -14 -25q-16 -22 -44 -22q-20 0 -32 6zM212 338.5q2 0.5 3 2.5
q26 33 36 62q3 8 2 14q0 2 -2.5 3.5t-4.5 0.5q-10 -6 -19 -20q-16 -26 -19 -57l1 -5q1 -1 3 -0.5zM169 69l4 6q6 11 8 29q2 6 2 9q0 5 -3 9q-7 -1 -9.5 -6.5t-3.5 -7.5q-9 -16 -9 -30q0 -4 2 -6q2 -3 5 -5zM18 3q18 35 20 81v19l-1 2q-1 1 -4 1q-2 0 -4 -2q-30 -33 -44 -80
q-3 -9 -3 -20v-4q0 -8 5 -16q5 -5 9 -5t8 3q10 10 14 21z" />
    <glyph glyph-name="t_h" horiz-adv-x="387" 
d="M447.5 514.5q0.5 -1.5 -0.5 -2.5q0 -3 -2 -3q-23 -1 -48.5 -7t-30.5 -7q-25 -5 -82 -20l-7 -8q-40 -44 -69 -68q-12 -10 -16 -25q-9 -33 -16 -55l-12 -42q-3 -8 -1 -17v1q5 2 9 10l18 31q16 26 27 38q5 6 17 16q10 8 21 8q14 0 22 -7.5t8 -20.5v-9q0 -14 -3 -28l-24 -110
q-11 -51 -11 -84v-12q0 -2 1 -3.5t2 -2.5t3.5 0t4.5 3q6 4 10 10q21 29 26 36q32 48 64 112q13 26 25 46q3 5 11 15q4 4 11 4q6 0 11 -3l2 -4q0 -1 -0.5 -3.5t-2.5 -5.5q-19 -32 -40 -73q-31 -60 -58 -104q-19 -31 -39 -50q-15 -11 -22 -13q-8 -2 -13 -2q-11 0 -21 6
q-14 7 -15 20q-1 6 -1 19q-1 52 17 130l22 84q2 8 2 11q0 2 -1 2q-1 1 -4 1l-8 -8q-4 -6 -11.5 -16.5t-11.5 -18.5l-50 -94q-10 -21 -13 -25q-6 -9 -16 -8q-6 0 -14 2q-9 3 -12 8t-3 13q-1 20 7 56q7 33 13 56l-10 -19q-13 -24 -28 -55q-15 -29 -28 -52q-9 -14 -20 -29
q-7 -10 -20 -10q-8 0 -12 2l-7 2q-19 8 -20 27q-1 6 -1 18q0 17 3 33q7 47 23 96l25 74l9 26q1 3 1 7q0 8 -13 5l-32 -6q-2 -1 -6 -1t-12 4q-2 1 -3.5 3t-1.5 4q0 3 5 5l47 13l5 1q4 1 13.5 3t12.5 8t7 16l21 37q4 9 16 5l7 -3q10 -7 7 -18q-2 -5 -7 -22l-1 -2q0 -2 2.5 -4
t4.5 -1q7 0 10 1l59 14l6 1q12 29 37 69q18 24 29 34q10 10 22 14q9 3 18 3q17 0 33 -12q8 -6 8 -16t-3 -21q-6 -22 -20 -39l62 15q7 2 17 3.5t15 2.5q3 1 9 1q11 0 23 -5q3 -1 11 -9q1 0 1.5 -1.5zM235 489l34 9q5 5 10 12.5t8 11.5q12 19 16 34q2 8 2 11q0 4 -1 5
q0 1 -2 2.5t-3 0.5q-6 -2 -9 -4q-7 -6 -19 -20q-18 -25 -36 -62zM240 465l-17 -5q-1 -1 -1 -2.5t-1 -2.5q-1 -2 0 -4t2 -2l4 2zM130 359l33 63q5 12 10 26q-6 -2 -7 -2l-66 -14q-8 0 -11 -8q-1 -7 -5 -16l-22 -74q-7 -20 -8 -26q-9 -27 -19 -62q-2 -6 -12 -55q2 -6 5 -5l4 2
l4 5l21 34z" />
    <glyph glyph-name="t_t" horiz-adv-x="315" 
d="M124 56q-4 19 -3 38q8 111 34 201l24 78q1 4 4 11t3 14q4 4 1 6q-2 1 -4 -4q-4 -3 -6.5 -8l-3.5 -7q-60 -110 -88 -166q-15 -29 -28 -52q-9 -14 -20 -29q-7 -10 -20 -10q-8 0 -12 2l-7 2q-19 8 -20 27q-1 6 -1 18q0 17 3 33q7 47 23 96l25 74l9 26q1 3 1 7q0 8 -13 5
l-32 -6q-2 -1 -6 -1t-12 4q-2 1 -3.5 3t-1.5 4q0 3 5 5l47 13l5 1q4 1 13.5 3t12.5 8t7 16l21 37q4 9 16 5l7 -3q10 -7 7 -18q-2 -5 -7 -22l-1 -2q0 -2 2.5 -4t4.5 -1q7 0 10 1l59 14q15 3 23 18q18 34 58 102q5 11 17 31q2 5 5 8q4 2 6 2q7 0 13 -6q6 -5 5 -12q0 -7 -3 -13
q-3 -10 -17 -47l-15 -44l-2 -7q0 -3 2 -5t4 -1q14 2 20 4l76 18q7 2 17 3.5t15 2.5q3 1 9 1q11 0 23 -5q3 -1 11 -9q1 0 1.5 -1.5t-0.5 -2.5q0 -3 -2 -3q-23 -1 -48.5 -7t-30.5 -7q-75 -18 -100 -25q-9 -1 -14 -11l-1 -5l-8 -24q-35 -98 -51 -164q-15 -54 -23 -125
q-5 -47 -5 -58q0 -15 1 -22q0 -3 2 -3q4 -2 7 0l10 10l21 29q24 36 52 91l43 83q5 9 9 17t8 15q2 4 4 6q3 4 9 4q7 0 11 -5q3 -3 1 -6l-9 -22q-30 -59 -53 -107q-19 -40 -50 -91l-21 -31q-7 -10 -19 -17q-11 -7 -23 -7q-10 0 -23 5q-16 8 -20 24zM32 188l4 5l21 34l73 132
l36 68q3 4 4 7.5t2 5.5t-1 4t-5 2l-66 -14q-8 0 -11 -8q-1 -7 -5 -16l-22 -74q-7 -20 -8 -26q-9 -27 -19 -62q-2 -6 -12 -55q2 -6 5 -5z" />
    <glyph glyph-name="zero" unicode="0" horiz-adv-x="213" 
d="M58 84q-22 19 -25 46q-5 23 -3 45q7 88 21 150q10 38 18 56l11 21q3 5 8 8q12 8 18 11l7 3q3 1 12 1q15 0 30 -8t21 -25q5 -10 5 -18q3 -28 2 -35q-6 -88 -26 -162q-11 -46 -36 -83l-10 -14q-5 -7 -18 -9q-21 0 -35 13zM83 105q6 0 8 5q6 7 16 23q19 32 29 74l14 78
q4 24 8 69q-3 24 -4 29q-1 8 -7 20q-4 6 -11 6q-6 0 -10 -4q-8 -10 -10 -12q-6 -4 -10 -15q-13 -41 -19 -87q-6 -40 -12 -124q-2 -31 2 -54q2 -6 4 -8h2z" />
    <glyph glyph-name="one" unicode="1" horiz-adv-x="208" 
d="M35 32q-4 1 -5 5t3 6q10 5 15 14t9 22q4 22 7 33q7 36 11 59q17 94 45 182q10 32 14 48l2 9l-2 4q-2 2 -4 0l-18 -15l-40 -36q-3 -3 -11 -3q-3 1 -4.5 4t-0.5 5l6 10l28 29q6 6 25.5 24t33.5 36q5 5 11 5q3 0 9 -2q9 -4 9 -15q0 -8 -1 -12l-4 -24q-2 -13 -8 -41t-20 -84
q-13 -58 -24 -117q-10 -56 -16 -83q-5 -25 -15 -47q-1 -2 1 -4.5t4 -2.5l16 3h11q4 0 5 -1l5 -4q0 -3 -3 -6q-14 -7 -25 -7h-26v0h-21q-8 0 -22 6z" />
    <glyph glyph-name="two" unicode="2" horiz-adv-x="253" 
d="M134 30q-7 0 -10 1q-21 3 -40 3l-28 4l-11 4q-15 8 -15 16q0 6 4 13l6 11q43 75 96 188q27 58 39 105q7 28 7 47q0 26 -10 26q-6 0 -15 -6q-53 -31 -70 -96q-1 -5 -1 -13.5t-1 -14.5q0 -3 -3 -4.5t-6 -0.5q-8 2 -11 10q-4 13 -3 26q9 72 71 111q17 10 32 10
q20 0 35 -11.5t20 -30.5q3 -12 3 -24q0 -14 -3 -28.5t-4 -18.5q-13 -54 -38 -107q-34 -74 -86 -164q-3 -7 -8 -14q-4 -7 -4 -10q0 -5 12 -7l21 -4q3 -1 9 -1q11 0 17 6q5 3 9 3q3 0 9 -2q9 -3 9 -11q0 -5 -6 -10q-7 -6 -15 -6h-11z" />
    <glyph glyph-name="three" unicode="3" horiz-adv-x="247" 
d="M93 32q-20 0 -37 10q-15 9 -21 25l-3 9q-2 8 -2 12q0 14 10 27q6 6 14 6t13 -6q2 -4 2 -7l-4 -13q-1 -3 -1 -10q0 -13 8 -24q2 -2 5 -3t5 0q50 18 59 70q3 14 3 27q0 10 -1 15l-1 26q-2 17 -7 27q-3 8 -10 8q-8 0 -14 -1t-10 -2q-2 -1 -7 -1q-12 0 -25 11q-1 2 -1 5t1 4
q5 7 12 11q31 23 56 66q3 5 13.5 25.5t17.5 39.5q8 22 8 42q0 5 -2 13q0 4 -5 4q-13 -3 -14 -3q-25 -10 -44 -34q-24 -34 -24 -65q0 -3 -2 -7q0 -2 -3 -2q-18 0 -20 16l-1 12q0 6 2 16q13 48 49 73q20 16 45 17q12 0 17 -1q41 -8 43 -48v-9q0 -12 -3 -26q-18 -61 -57 -112
q-2 -3 -18 -19q-1 -2 -1 -4.5t2 -3.5q4 -4 8 -5q24 -14 30 -40q7 -33 7 -58q0 -17 -3 -35q-10 -56 -65 -74q-11 -4 -24 -4z" />
    <glyph glyph-name="four" unicode="4" horiz-adv-x="230" 
d="M139 16q-5 2 -5 7q-1 4 -1 11q0 19 1 29v33q0 9 -10 10q-15 1 -47 5q-14 1 -29 8q-19 10 -18 30l3 26q5 26 23 76l33 88q21 55 32 103l10 36q1 4 5 6t9 0q15 -4 15 -21q0 -14 -1 -21q-7 -60 -26 -109q-16 -47 -36 -97q-15 -39 -23 -74q-4 -16 -3 -25q0 -5 6 -7l7 -2
q28 -2 42 -4h3q4 0 6 2t4 8q4 18 5 27q5 28 10 47l13 57q1 2 2 6t4 9q3 9 13 7q15 -2 14 -15q-2 -32 -4 -50q-8 -52 -13 -78l-1 -6q0 -5 5 -12q3 -3 3 -7q0 -2 -4 -8l-5 -4q-4 -3 -6 -10l-9 -48q-4 -19 -5 -26q-4 -9 -12 -9q-4 0 -10 2z" />
    <glyph glyph-name="five" unicode="5" horiz-adv-x="280" 
d="M31 82q-3 26 10 55q5 14 20 25q8 5 18 2q10 -5 4 -13l-6 -10q-3 -3 -4 -5.5t-2 -4.5q-6 -10 -6 -39q0 -23 6 -35l4 -6q4 -4 8 -4q5 0 11 2q18 8 31 26q10 14 19 37q14 46 13 90q1 19 -4 47q-5 18 -14 30q-12 13 -29 10q-8 -1 -22 -9q-7 -4 -15 -4q-9 0 -18 9q-4 3 -3 9
q1 5 5 15q10 24 22 76q4 20 7 30l6.5 19.5t8.5 23.5l5 9q2 3 5 4t7 0q2 0 6 -2q8 -4 16 -1q16 5 53 11q22 3 40 2q9 0 15 -6q2 -1 2 -6l-3 -3l-7 -1q-26 -3 -55 -11t-36 -10q-3 -1 -11 -3t-11.5 -7.5t-5.5 -18.5t-8 -39l-13 -55v-2q0 -5 6 -7l18 -5q54 -20 65 -72
q7 -35 7 -60q0 -29 -8 -63q-5 -24 -16 -42q-11 -17 -13 -19q-23 -27 -59 -27q-18 0 -36 8q-31 15 -33 50z" />
    <glyph glyph-name="six" unicode="6" horiz-adv-x="218" 
d="M46 55q-13 30 -14 61l-2 31q0 38 13 97q17 80 55 162q14 33 36 55q12 10 19 14t14 4q11 0 20 -9q1 -1 0.5 -3t-1.5 -3q-16 -10 -33 -38q-10 -18 -14 -28q-30 -80 -45 -138l-3 -14q0 -2 2 -4t4 -2h7q9 0 25 -6q38 -17 41 -56q1 -12 1 -37q-3 -38 -14 -64q-9 -27 -32 -46
q-14 -11 -28 -11q-7 0 -16 3q-25 8 -35 32zM125 89q15 34 15 77q0 17 -1 26q-2 14 -9 24q-8 8 -14 7l-5 -1q-5 0 -10.5 2.5t-9.5 3.5q-1 1 -2 0.5t-1 -1.5q-1 -3 -3 -7.5t-3 -10.5q-7 -40 -7 -70l2 -33q2 -26 12 -50q1 -2 4 -3t5 1q17 12 27 35z" />
    <glyph glyph-name="seven" unicode="7" horiz-adv-x="203" 
d="M63 4q-13 7 -10 22q6 32 8 48l17 102q17 91 34 161q8 33 20 99l4 24q1 4 1 14q0 4 -5 4q-8 0 -12 -1q-14 -2 -22 -4q-28 -4 -42 -8q-3 -1 -8 -1q-8 0 -16 6q-2 2 -2 5.5t3 4.5l9 3q27 10 58 13.5t36 4.5h5q13 0 24 -8q8 -6 8 -16t-2 -30t-8 -68q-2 -12 -4 -20
q-2 -14 -8 -42q-25 -119 -33 -173l-11 -75q-5 -30 -6 -32q-3 -19 -13 -32q-6 -8 -15 -5q-8 3 -10 4z" />
    <glyph glyph-name="eight" unicode="8" horiz-adv-x="226" 
d="M33 66l-3 11v11v6q0 13 3 23q16 71 51 136q3 4 16 28q4 6 2 14l-8 27q-11 32 -15 64q-3 20 6 46q7 15 16 23q17 15 33 15q7 0 10 -1l4 -1q4 0 6 7q0 2 2.5 3t4.5 0q19 -4 30 -21q5 -8 5 -17q0 -5 -1 -8q-7 -24 -18 -49q-5 -11 -24 -50l-9 -17q-4 -7 -4 -14q0 -3 2 -11
l5 -16q14 -50 20 -94q2 -18 2 -28q0 -29 -9 -58q-6 -18 -15 -32q-8 -14 -23 -22t-33 -8q-21 0 -41 13q-11 8 -15 20zM132 346l4 3q20 39 34 82q2 12 2 17t-3 8q0 1 -1.5 1.5l-1.5 0.5q-3 -5 -9 -7q-28 -8 -35 -43l-2 -20l2 -19q2 -16 6 -23h4zM77 59q17 8 27 28q21 41 20 88
q1 14 -2.5 32.5t-4.5 26.5q0 2 -3 11q-1 2 -3 2t-3 -1l-4 -5q-34 -62 -47 -127q-2 -12 -2 -19l1 -14q2 -11 6 -20q1 -2 4 -3.5t4 -0.5z" />
    <glyph glyph-name="nine" unicode="9" horiz-adv-x="212" 
d="M102 31q-13 0 -19 11q-3 5 -2 9q3 14 7 22q13 30 17 59q9 42 14 100l7 60q2 11 0 17v0.5t-1 0.5h-2q-4 -4 -5 -6l-7 -17q-12 -20 -20 -29q-6 -8 -11.5 -12t-13.5 -3q-26 7 -32 27q-6 14 -4 28q0 80 51 138l7 7q9 8 19 8q9 0 17 -5l9 -7q6 -4 9 3l10 26q1 2 3 3.5t4 1.5
q14 -2 20 -12q3 -4 3 -11q0 -17 -1 -25q-10 -91 -13 -134l-7 -65q0 -9 -2 -23q-1 -38 -15 -110q-3 -20 -13 -35q-6 -11 -13 -19q-8 -8 -16 -8zM77 299l11 15q21 41 44 101l3 9q0 6 -6 6q-4 2 -8 -2q-4 -3 -7 -7q-14 -24 -22 -36q-10 -17 -14.5 -35.5t-7.5 -43.5v-6l3 -3
q4 0 4 2z" />
    <glyph glyph-name="fraction" unicode="&#x2044;" horiz-adv-x="340" 
d="M39 -112q-11 5 -8 15l6 18l33 89q9 22 14.5 38.5t9.5 27.5l12 33l18 49l39 108l38 107l19 53q20 58 26 78l15 47q3 12 11 36l9 21q5 11 20 9q4 -1 6.5 -3.5t2.5 -5.5q-2 -18 -4 -28l-21 -90h-0.5t-0.5 1q-4 -20 -7 -30q-24 -76 -57 -170q-7 -22 -23 -66l-24 -67l-18 -50
l-39 -104q-11 -33 -30 -78q-4 -8 -18 -35q-4 -9 -16 -8q-6 1 -13 5z" />
    <glyph glyph-name="asterisk" unicode="*" horiz-adv-x="229" 
d="M96 626.5q-6 5.5 -6 13.5l-2 24q0 2 -3 2h-5l-24 -18q-7 -6 -17 -3q-2 1 -3.5 2t-2.5 2q-5 3 -3 11q5 10 23 24l22 17q2 2 1.5 4.5t-2.5 3.5l-10 9q-10 8 -15 13t-7 9q-1 3 0 7q0 1 2.5 2t5.5 0q17 -6 23 -15q4 -6 12 -11q2 -1 4.5 0.5t3.5 3.5q4 28 5 42q2 6 2 9
q1 2 3.5 3t4.5 0q9 -2 12 -10l2 -16l3 -14q0 -1 2 -2.5t4 -0.5l10 5q20 10 29 16q6 3 11 3q8 0 13 -4q10 -7 1 -13q-16 -12 -25 -17l-34 -21l-9 -8q-1 -1 -1 -3t1 -3l7 -6l31 -22q3 -2 10 -9v-2l-3 -3q-3 0 -9 2l-15 7q-7 5 -16 10q-4 3 -8 3t-5 -10q-2 -11 -2 -33l-2 -7
q0 -2 -4 -2q-9 0 -15 5.5z" />
    <glyph glyph-name="backslash" unicode="\" horiz-adv-x="340" 
d="M284 -117q-8 0 -12 8q-14 27 -18 35q-18 43 -30 77l-39 104l-18 50l-25 72l-22 61q-33 94 -57 170q-3 10 -7 30q0 -1 -0.5 -1h-0.5l-21 90q-2 10 -4 28q0 3 2.5 5.5t6.5 3.5h4q12 0 16 -9l9 -21q8 -24 11 -36l15 -47q6 -20 26 -78l19 -53l38 -107l39 -108l18 -49l12 -33
q4 -11 9.5 -27.5t14.5 -38.5l33 -88l6 -18l1 -4q0 -8 -9 -11q-7 -4 -13 -5h-4z" />
    <glyph glyph-name="periodcentered" unicode="&#xb7;" horiz-adv-x="104" 
d="M42 228q-12 8 -12 20q0 5 1 11t0 11q0 4 2.5 6t6.5 1q21 -1 31 -19q1 -3 2 -7t1 -6q0 -4 -2 -12q-2 -5 -7.5 -7.5t-11.5 -1.5z" />
    <glyph glyph-name="bullet" unicode="&#x2022;" horiz-adv-x="132" 
d="M44 218q-17 9 -14 27q1 20 12 38q4 7 11 6q17 -1 34 -9q14 -6 15 -24q-2 -20 -15 -36q-9 -10 -24 -9q-11 2 -19 7z" />
    <glyph glyph-name="colon" unicode=":" horiz-adv-x="154" 
d="M66 304q-17 9 -14 27q1 20 12 38q4 7 11 6q17 -1 34 -9q14 -6 15 -24q-2 -20 -15 -36q-9 -11 -24 -9q-11 2 -19 7zM44 132q-17 9 -14 27q1 20 12 38q4 7 11 6q17 -1 34 -9q14 -6 15 -24q-2 -20 -15 -36q-9 -10 -24 -9q-11 2 -19 7z" />
    <glyph glyph-name="comma" unicode="," horiz-adv-x="125" 
d="M43 -47q-4 1 -5.5 4t-0.5 7q10 20 13.5 44t4.5 28v4q0 8 -8 11l-4 2q-13 6 -13 17q0 2 2 10q3 11 12 18q7 7 17 7q13 0 20 -9q8 -9 10.5 -19.5t3.5 -26.5q-1 -3 -1 -7t-2 -10q-7 -37 -10 -50l-6 -18q-7 -15 -24 -14q-3 0 -9 2z" />
    <glyph glyph-name="exclam" unicode="!" horiz-adv-x="185" 
d="M49 131q1 9 2 22t4 30q5 45 25 133l12 55q8 40 13 60q3 18 6.5 31.5t5.5 22.5l6 27l5 10q1 2 3.5 3.5t4.5 0.5q4 -3 12 -7q6 -6 6 -13v-14h1q-4 -39 -7 -56q-16 -108 -34 -178q-11 -50 -17 -94q-2 -21 -5 -31q-3 -12 -9 -24q-5 -10 -17 -6q-18 9 -17 28zM43 -20
q-12 7 -12 19q0 6 1 12.5t0 9.5q0 4 3 6.5t7 1.5q19 -1 30 -19q1 -3 2 -6.5t2 -6.5l-3 -12q-2 -6 -7.5 -8.5t-11.5 -0.5q-9 3 -11 4z" />
    <glyph glyph-name="numbersign" unicode="#" horiz-adv-x="371" 
d="M101 88q1 12 1 36q0 8 -1 11q-1 2 -2.5 3t-2.5 1q-4 1 -7 0.5t-5 -0.5l-33 -3q-10 0 -14 6q-3 5 1 9l9 3l48 12q9 3 9 12q2 10 2 14l6 58v14q0 5 -5 5q-6 0 -18 -4q-3 -1 -14.5 -4t-22.5 -3q-4 -1 -6.5 -0.5t-4.5 0.5q-4 1 -10 7q-2 4 1 6l7 6q16 8 50 20l18 6
q11 3 11 13q2 20 4 30l6 30q1 3 4 4.5t6 0.5q15 -4 15 -18q1 -9 0.5 -16t-0.5 -12l1 -12q0 -1 2.5 -3t4.5 -2t2 1l51 12q8 2 9 9l7 47l6 35l5 10q1 2 6 2q11 -5 11 -14v-16v-22h-1v-32q0 -4 2.5 -6.5t6.5 -1.5l30 6q16 4 23 5l5 1q11 0 17 -11q1 -3 0 -5.5t-2 -3.5
q-8 -4 -13 -5l-65 -19q-8 -3 -9 -10l-9 -82l1 -3q0 -2 1.5 -4t3.5 -2l17 3l25 4h5q13 0 21 -8q1 -2 1 -7l-3 -3q-18 -3 -59 -15l-11 -3q-7 -3 -8 -8q-2 -14 -4 -21l-6 -32q-2 -7 -9 -7q-4 0 -9 4t-6 5q-6 5 -5 12q0 9 2 23q0 10 -10 8l-43 -12q-8 -2 -8 -10l-8 -53
q-1 -6 -5 -18q-1 -3 -3.5 -4t-5.5 0q-16 6 -16 21zM199 196q4 1 6 7l1 7l9 70v9q0 3 -2.5 5t-5.5 1q-10 -2 -46 -11q-9 -2 -11 -13l-6 -74v-5q0 -5 1.5 -7t5.5 -2l10 2q22 7 38 11z" />
    <glyph glyph-name="period" unicode="." horiz-adv-x="132" 
d="M44 7q-17 9 -14 27q1 20 12 38q4 7 11 6q17 -1 34 -9q14 -6 15 -24q-2 -20 -15 -36q-9 -10 -24 -9q-11 2 -19 7z" />
    <glyph glyph-name="question" unicode="?" horiz-adv-x="303" 
d="M50 78q-5 16 -5 40q-2 24 11 62q24 59 55 100l55 71q34 45 50 79q11 24 15 45q1 3 1 9q0 8 -2 12q-1 5 -8 8q-8 3 -18 1q-23 -1 -45 -14q-51 -30 -66 -84q-2 -8 -2 -12q-1 -5 1 -11q1 -4 4.5 -4.5t5.5 -0.5q3 0 5 -1t4 -3t1 -3l-5 -5q-7 -5 -18 -2q-25 12 -25 39v5
q0 9 4 25q28 79 105 98q12 2 17 2q23 0 43.5 -12.5t30.5 -29.5q9 -13 9 -29q0 -7 -1 -11q-6 -26 -11 -38q-14 -34 -32 -58l-33 -46l-48 -61q-31 -42 -52 -97q-10 -30 -14 -55q-2 -12 -2 -17q0 -9 4 -27q2 -1 -1 -4q-4 -2 -6 -1q-21 7 -27 30zM40 -39q-7 1 -9 9q-1 2 -1 5
q0 5 5 10t10 6q10 2 14 2t14 -2q3 -1 5.5 -4.5t2.5 -7.5q0 -3 -3 -6q-12 -13 -29 -14q-3 0 -9 2z" />
    <glyph glyph-name="quotedbl" unicode="&#x22;" horiz-adv-x="195" 
d="M43 570q-4 1 -5.5 4t-0.5 7q10 20 13.5 44t4.5 28v4q0 8 -8 11l-4 2q-13 6 -13 17q0 2 2 10q3 11 12 18q7 7 17 7q13 0 20 -9q8 -9 10.5 -19.5t3.5 -26.5q-1 -3 -1 -7t-2 -10q-7 -37 -10 -50l-6 -18q-7 -15 -24 -14q-3 0 -9 2zM113 570q-4 1 -5.5 4t-0.5 7q10 20 13.5 44
t4.5 28v4q0 8 -8 11l-4 2q-13 6 -13 17q0 2 2 10q3 11 12 18q7 7 17 7q13 0 20 -9q8 -9 10.5 -19.5t3.5 -26.5q-1 -3 -1 -7t-2 -10q-7 -37 -10 -50l-6 -18q-7 -15 -24 -14q-3 0 -9 2z" />
    <glyph glyph-name="quotesingle" unicode="'" horiz-adv-x="125" 
d="M43 570q-4 1 -5.5 4t-0.5 7q10 20 13.5 44t4.5 28v4q0 8 -8 11l-4 2q-13 6 -13 17q0 2 2 10q3 11 12 18q7 7 17 7q13 0 20 -9q8 -9 10.5 -19.5t3.5 -26.5q-1 -3 -1 -7t-2 -10q-7 -37 -10 -50l-6 -18q-7 -15 -24 -14q-3 0 -9 2z" />
    <glyph glyph-name="semicolon" unicode=";" horiz-adv-x="154" 
d="M66 343q-17 9 -14 27q1 20 12 38q4 7 11 6q17 -1 34 -9q14 -6 15 -24q-2 -20 -15 -36q-9 -10 -24 -9q-11 2 -19 7zM43 88q-4 1 -5.5 4t-0.5 7q10 20 13.5 44t4.5 28v4q0 8 -8 11l-4 2q-13 6 -13 17q0 2 2 10q3 10 12 18q7 7 17 7q13 0 20 -9q8 -9 10.5 -19.5t3.5 -26.5
q-1 -3 -1 -7t-2 -10q-7 -37 -10 -50l-6 -18q-7 -15 -24 -14q-3 0 -9 2z" />
    <glyph glyph-name="slash" unicode="/" horiz-adv-x="340" 
d="M39 -112q-11 5 -8 15l6 18l33 89q9 22 14.5 38.5t9.5 27.5l12 33l18 49l39 108l38 107l19 53q20 58 26 78l15 47q3 12 11 36l9 21q5 11 20 9q4 -1 6.5 -3.5t2.5 -5.5q-2 -18 -4 -28l-21 -90h-0.5t-0.5 1q-4 -20 -7 -30q-24 -76 -57 -170q-7 -22 -23 -66l-24 -67l-18 -50
l-39 -104q-11 -33 -30 -78q-4 -8 -18 -35q-4 -9 -16 -8q-6 1 -13 5z" />
    <glyph glyph-name="underscore" unicode="_" 
d="M30 -14q0 2 1.5 4.5t3.5 3.5h4l83 6h28q17 0 17 -17q0 -9 -7 -10q-8 -4 -13 -4q-33 -5 -60 -5q-20 0 -41 3q-16 3 -16 19z" />
    <glyph glyph-name="braceleft" unicode="{" horiz-adv-x="214" 
d="M85 -73q-36 14 -37 50q-1 18 -1 55l8 133q1 12 1 37t-3 52q-1 6 -5 23q-4 15 -12 22q-3 4 -5 8q-1 1 -0.5 3t1.5 3q1 2 9 7q26 12 39 42q24 49 25 100v35q2 28 9 53q7 17 10 21q6 10 19 13h11q18 0 28 -7l2 -4q0 -1 -3 -4q-1 -1 -4 -1q-17 -3 -20 -20q-7 -24 -7 -42
l-1 -59q0 -48 -20 -93q-17 -38 -49 -53q-9 -3 -3 -13q14 -25 16 -63q3 -27 3 -53l-1 -31l-6 -137q0 -28 4 -42q3 -9 4 -11q2 -6 9 -10q12 -7 26 -9h3q5 0 8 3q5 4 12 4l9 -1q5 -2 6.5 -6.5t-2.5 -8.5q-3 -5 -7 -6q-10 -2 -16 -2q-27 0 -60 12z" />
    <glyph glyph-name="braceright" unicode="}" horiz-adv-x="214" 
d="M60 -84q-18 0 -28 7l-2 4q0 1 3 4q1 1 4 1q17 3 20 20q7 24 7 42l1 59q0 48 20 93q17 38 49 53q9 3 3 13q-14 25 -16 63q-3 27 -3 53l1 31l6 137q0 28 -4 42q-3 9 -4 11q-2 6 -9 10q-12 7 -26 9h-3q-5 0 -8 -3q-5 -4 -12 -4l-9 1q-5 2 -6.5 6.5t2.5 8.5q3 5 7 6
q10 2 16 2q27 0 60 -12q36 -14 37 -50q1 -18 1 -55l-8 -133q-1 -12 -1 -37t3 -52q1 -6 5 -23q4 -15 12 -22q4 -3 5 -8q1 -1 0.5 -3t-1.5 -3q-1 -2 -9 -7q-26 -12 -39 -42q-24 -49 -25 -100v-35q-2 -28 -9 -53q-7 -17 -10 -21q-5 -10 -19 -13h-11z" />
    <glyph glyph-name="bracketleft" unicode="[" horiz-adv-x="208" 
d="M42 -80q-13 4 -12 17q0 6 2 22q2 20 2 32q1 67 6 133q0 16 2 46q2 17 4 51l3 50q1 22 5 68q8 86 9 131q1 30 5 85q0 12 3 18q5 10 15 10h5l53 -9q17 -3 30 -12q1 -1 4 -6v-2q-2 -2 -4 -2q-1 -1 -2 -0.5t-2 0.5q-11 7 -22.5 8t-32.5 1q-6 0 -8 -8q-1 -7 -1 -23
q-1 -14 -0.5 -24.5t0.5 -17.5v-22h-2v-28q-1 -46 -9 -138q-4 -59 -7 -92l-7 -105l-6 -101l-3 -47q-2 -8 0 -14q0 -2 1 -3.5t3 -1.5q5 -1 12 -2.5t12 -1.5q8 0 15 4q6 2 8 2q6 0 10 -3q4 -2 5 -8q0 -2 -2 -5t-5 -4l-7 -1h-68q-7 0 -14 3z" />
    <glyph glyph-name="bracketright" unicode="]" horiz-adv-x="208" 
d="M64 -74q-17 3 -30 12q-1 1 -4 6v2q2 2 4 2q1 1 2 0.5t2 -0.5q11 -7 22.5 -8t32.5 -1q6 0 8 8q1 7 1 23q1 14 0.5 24.5t-0.5 17.5v22h2v28q1 46 9 138q4 59 7 92l7 105l6 101l3 47q2 8 0 14q0 2 -1 3.5t-3 1.5q-5 1 -12 2.5t-12 1.5q-8 0 -15 -4q-6 -2 -8 -2q-5 0 -10 3
q-4 2 -5 8q0 2 2 5t5 4l7 1h68q6 0 14 -3q13 -4 12 -17q0 -6 -2 -22q-2 -20 -2 -32q-1 -67 -6 -133q0 -16 -2 -46q-2 -17 -4 -51l-3 -50q-1 -22 -5 -68q-8 -86 -9 -131q-1 -30 -5 -85q0 -12 -3 -18q-5 -10 -15 -10h-5z" />
    <glyph glyph-name="parenleft" unicode="(" horiz-adv-x="235" 
d="M116 -68q-11 0 -23 6q-26 17 -36 39q-19 40 -23 74t-4 52q0 14 1 21q1 60 13 138q10 66 34 144q7 26 22 67q6 18 18 41q10 20 31 38q8 7 17 11q7 3 13 3q12 0 24 -10q2 -2 2 -4.5t-2 -4.5q-10 -4 -17 -11.5t-16 -20.5q-12 -18 -23 -49q-13 -35 -36 -117q-16 -60 -22 -103
l-6 -59q-5 -43 -5 -80q-2 -40 5 -72q6 -30 20 -60q8 -15 19 -15q3 0 5 -1l4 -2q6 -4 6 -10q0 -13 -10 -14q-4 -1 -11 -1z" />
    <glyph glyph-name="parenright" unicode=")" horiz-adv-x="235" 
d="M56 -66q-12 0 -24 10q-2 2 -2 4.5t2 4.5q10 4 17 11.5t16 20.5q12 18 23 49q13 35 36 117q16 60 22 103l6 59q5 43 5 80q2 40 -5 72q-6 30 -20 60q-7 15 -19 15q-3 0 -5 1l-4 2q-6 4 -6 10q0 13 10 14q4 1 11 1q11 0 23 -6q26 -17 36 -39q19 -40 23 -74t4 -52
q0 -14 -1 -21q-1 -60 -13 -138q-10 -66 -34 -144q-7 -26 -22 -67q-6 -17 -18 -41q-10 -20 -31 -38q-8 -7 -17 -11q-8 -3 -13 -3z" />
    <glyph glyph-name="emdash" unicode="&#x2014;" 
d="M30 255q0 2 1.5 4.5t3.5 3.5h4l83 6h28q17 0 17 -17q0 -9 -7 -10q-8 -4 -13 -4q-33 -5 -60 -5q-20 0 -41 3q-16 3 -16 19z" />
    <glyph glyph-name="endash" unicode="&#x2013;" 
d="M30 255q0 2 1.5 4.5t3.5 3.5h4l83 6h28q17 0 17 -17q0 -9 -7 -10q-8 -4 -13 -4q-33 -5 -60 -5q-20 0 -41 3q-16 3 -16 19z" />
    <glyph glyph-name="hyphen" unicode="-" 
d="M30 255q0 2 1.5 4.5t3.5 3.5h4l83 6h28q17 0 17 -17q0 -9 -7 -10q-8 -4 -13 -4q-33 -5 -60 -5q-20 0 -41 3q-16 3 -16 19z" />
    <glyph glyph-name="guillemotleft" unicode="&#xab;" horiz-adv-x="265" 
d="M134 130q-10 3 -23 16l-39 37l-26 27q-2 2 -12 14q-4 6 -4 8q0 4 9 7q6 2 9 6l3 4q15 26 51 74l19 26q6 9 13 16q6 6 13 6q5 0 11 -3q9 -7 6 -16l-9 -20q-20 -38 -53 -83l-7 -9q-7 -9 -11.5 -15t-4.5 -9q0 -4 7 -10.5t12 -11.5q1 -1 28 -31q8 -10 18 -11l10 -5
q3 -1 4.5 -4.5t0.5 -5.5q0 -4 -2.5 -6.5t-6.5 -2.5l-1 -0.5t-3 -0.5zM204 130q-11 3 -23 16l-39 37l-26 27q-2 2 -12 14q-4 6 -4 8q0 4 9 7q6 2 9 6l3 4q15 26 51 74l19 26q6 9 13 16q6 6 13 6q5 0 11 -3q9 -7 6 -16l-9 -20q-20 -38 -53 -83l-7 -9q-7 -9 -11.5 -15t-4.5 -9
q0 -4 7 -10.5t12 -11.5q1 -1 28 -31q8 -10 18 -11l10 -5q3 -1 4.5 -4.5t0.5 -5.5q0 -4 -2.5 -6.5t-6.5 -2.5l-1 -0.5t-3 -0.5z" />
    <glyph glyph-name="guillemotright" unicode="&#xbb;" horiz-adv-x="265" 
d="M46 127.5l-1 0.5q-4 0 -6.5 2.5t-2.5 6.5v2q0 5 5 8l10 5q10 1 18 11q27 30 28 31q5 5 12 11.5t7 10.5q0 3 -4.5 9t-11.5 15l-7 9q-33 45 -53 83l-9 20l-1 4q0 7 7 12q6 3 11 3q7 0 13 -6q7 -7 13 -16l19 -26q36 -48 51 -74l3 -4q3 -4 9 -6q9 -3 9 -7q0 -2 -4 -8
q-10 -12 -12 -14l-26 -27l-39 -37q-12 -13 -23 -16l-12 -3q-2 0 -3 0.5zM116 127.5l-1 0.5q-4 0 -6.5 2.5t-2.5 6.5v2q0 5 5 8l10 5q10 1 18 11q27 30 28 31q5 5 12 11.5t7 10.5q0 3 -4.5 9t-11.5 15l-7 9q-33 45 -53 83l-9 20l-1 4q0 7 7 12q6 3 11 3q7 0 13 -6
q7 -7 13 -16l19 -26q36 -48 51 -74l3 -4q3 -4 9 -6q9 -3 9 -7q0 -2 -4 -8q-10 -12 -12 -14l-26 -27l-39 -37q-12 -12 -23 -16l-12 -3q-2 0 -3 0.5z" />
    <glyph glyph-name="guilsinglleft" unicode="&#x2039;" horiz-adv-x="195" 
d="M134 130q-10 3 -23 16l-39 37l-26 27q-2 2 -12 14q-4 6 -4 8q0 4 9 7q6 2 9 6l3 4q15 26 51 74l19 26q6 9 13 16q6 6 13 6q5 0 11 -3q9 -7 6 -16l-9 -20q-20 -38 -53 -83l-7 -9q-7 -9 -11.5 -15t-4.5 -9q0 -4 7 -10.5t12 -11.5q1 -1 28 -31q8 -10 18 -11l10 -5
q3 -1 4.5 -4.5t0.5 -5.5q0 -4 -2.5 -6.5t-6.5 -2.5l-1 -0.5t-3 -0.5z" />
    <glyph glyph-name="guilsinglright" unicode="&#x203a;" horiz-adv-x="195" 
d="M46 127.5l-1 0.5q-4 0 -6.5 2.5t-2.5 6.5v2q0 5 5 8l10 5q10 1 18 11q27 30 28 31q5 5 12 11.5t7 10.5q0 3 -4.5 9t-11.5 15l-7 9q-33 45 -53 83l-9 20l-1 4q0 7 7 12q6 3 11 3q7 0 13 -6q7 -7 13 -16l19 -26q36 -48 51 -74l3 -4q3 -4 9 -6q9 -3 9 -7q0 -2 -4 -8
q-10 -12 -12 -14l-26 -27l-39 -37q-12 -13 -23 -16l-12 -3q-2 0 -3 0.5z" />
    <glyph glyph-name="quotedblbase" unicode="&#x201e;" horiz-adv-x="125" 
d="M91.5 76.5q2.5 -10.5 3.5 -26.5q-1 -3 -1 -7t-2 -10q-7 -37 -10 -50l-6 -18q-7 -15 -24 -14q-3 0 -9 2q-4 1 -5.5 4t-0.5 7q10 20 13.5 44t4.5 28v4q0 8 -8 11l-4 2q-13 6 -13 17q0 2 2 10q3 11 12 18q7 7 17 7q13 0 20 -9q8 -9 10.5 -19.5z" />
    <glyph glyph-name="quotedblleft" unicode="&#x201c;" horiz-adv-x="195" 
d="M43 570q-4 1 -5.5 4t-0.5 7q10 20 13.5 44t4.5 28v4q0 8 -8 11l-4 2q-13 6 -13 17q0 2 2 10q3 11 12 18q7 7 17 7q13 0 20 -9q8 -9 10.5 -19.5t3.5 -26.5q-1 -3 -1 -7t-2 -10q-7 -37 -10 -50l-6 -18q-7 -15 -24 -14q-3 0 -9 2zM113 570q-4 1 -5.5 4t-0.5 7q10 20 13.5 44
t4.5 28v4q0 8 -8 11l-4 2q-13 6 -13 17q0 2 2 10q3 11 12 18q7 7 17 7q13 0 20 -9q8 -9 10.5 -19.5t3.5 -26.5q-1 -3 -1 -7t-2 -10q-7 -37 -10 -50l-6 -18q-7 -15 -24 -14q-3 0 -9 2z" />
    <glyph glyph-name="quotedblright" unicode="&#x201d;" horiz-adv-x="195" 
d="M43 570q-4 1 -5.5 4t-0.5 7q10 20 13.5 44t4.5 28v4q0 8 -8 11l-4 2q-13 6 -13 17q0 2 2 10q3 11 12 18q7 7 17 7q13 0 20 -9q8 -9 10.5 -19.5t3.5 -26.5q-1 -3 -1 -7t-2 -10q-7 -37 -10 -50l-6 -18q-7 -15 -24 -14q-3 0 -9 2zM113 570q-4 1 -5.5 4t-0.5 7q10 20 13.5 44
t4.5 28v4q0 8 -8 11l-4 2q-13 6 -13 17q0 2 2 10q3 11 12 18q7 7 17 7q13 0 20 -9q8 -9 10.5 -19.5t3.5 -26.5q-1 -3 -1 -7t-2 -10q-7 -37 -10 -50l-6 -18q-7 -15 -24 -14q-3 0 -9 2z" />
    <glyph glyph-name="quoteleft" unicode="&#x2018;" horiz-adv-x="125" 
d="M43 570q-4 1 -5.5 4t-0.5 7q10 20 13.5 44t4.5 28v4q0 8 -8 11l-4 2q-13 6 -13 17q0 2 2 10q3 11 12 18q7 7 17 7q13 0 20 -9q8 -9 10.5 -19.5t3.5 -26.5q-1 -3 -1 -7t-2 -10q-7 -37 -10 -50l-6 -18q-7 -15 -24 -14q-3 0 -9 2z" />
    <glyph glyph-name="quoteright" unicode="&#x2019;" horiz-adv-x="125" 
d="M43 570q-4 1 -5.5 4t-0.5 7q10 20 13.5 44t4.5 28v4q0 8 -8 11l-4 2q-13 6 -13 17q0 2 2 10q3 11 12 18q7 7 17 7q13 0 20 -9q8 -9 10.5 -19.5t3.5 -26.5q-1 -3 -1 -7t-2 -10q-7 -37 -10 -50l-6 -18q-7 -15 -24 -14q-3 0 -9 2z" />
    <glyph glyph-name="quotesinglbase" unicode="&#x201a;" horiz-adv-x="125" 
d="M43 -47q-4 1 -5.5 4t-0.5 7q10 20 13.5 44t4.5 28v4q0 8 -8 11l-4 2q-13 6 -13 17q0 2 2 10q3 11 12 18q7 7 17 7q13 0 20 -9q8 -9 10.5 -19.5t3.5 -26.5q-1 -3 -1 -7t-2 -10q-7 -37 -10 -50l-6 -18q-7 -15 -24 -14q-3 0 -9 2z" />
    <glyph glyph-name="cent" unicode="&#xa2;" horiz-adv-x="262" 
d="M103 61q-7 4 -7 11v31h1l2 28q0 8 -6 12q-7 3 -14 8q-37 24 -47 66q-2 7 -2 20q0 12 1 17q11 71 71 108l6 3q7 4 7 10q2 11 4 35q2 18 5 27q2 5 8 5q7 0 11 -4t4 -10q1 -6 1 -18v-17q0 -13 2.5 -16.5t16.5 -6.5q17 -3 43 -18l9 -7q13 -10 13 -25q0 -5 -3 -13
q-1 -4 -4.5 -5.5t-7.5 0.5q-6 4 -7 9l-2 16q-1 10 -11 15q-12 6 -24 6q-11 0 -19 -4q-8 -3 -9 -10q-2 -12 -2 -19l-2 -22q-2 -16 -4 -48q-2 -20 -4 -56q0 -8 1 -12q2 -3 5 -3q6 1 16 5q30 14 44 22q6 3 11 3q8 0 13 -4q5 -3 5 -9q0 -3 -3 -8q-7 -8 -16 -13q-7 -4 -29 -16
t-43 -18q-6 -1 -8 -8l-2 -23l-6 -42q0 -2 -3.5 -4t-5.5 -1h-2zM96 171q2 0 2 2q2 8 2 12q2 34 2 51h1q2 38 4 56v3l-2 4q-1 2 -3 1t-3 -3q-27 -38 -24 -84q0 -19 13 -37l5 -4q1 -1 3 -1z" />
    <glyph glyph-name="dollar" unicode="$" horiz-adv-x="262" 
d="M109.5 -30.5q-5.5 3.5 -7.5 9.5q-3 10 -3 21q0 4 0.5 10.5t-0.5 15.5q0 9 -8 10l-15 6q-22 9 -34 31q-4 8 -5 13q-7 20 -7 43q0 17 3 33t16 25q5 4 12 4q3 0 9 -2q2 -1 3 -3.5t0 -4.5l-1 -2q-14 -15 -14 -41q0 -11 1 -17q2 -29 20 -54q4 -6 9 -6q4 0 9 3l5 5q3 7 9 8
q10 3 17 18q22 38 22 80q0 28 -8 51q-4 11 -8 19.5t-7 15.5q-10 25 -13 31l-18 45q-6 14 -10 36q-2 10 -2 16q0 24 17 51q12 17 35 23l16 3q6 3 6 9q1 12 1 36l2 16q0 4 3.5 5.5t7.5 0.5q14 -5 14 -19q1 -7 0.5 -12t-0.5 -9v-14v-3q0 -14 13 -19q33 -15 33 -48q0 -11 -4 -22
q-3 -15 -12 -25q-6 -8 -17 -5q-2 1 -4 3t-1 4q6 12 8 19q4 11 4 24q0 16 -7 29l-6 6q-1 1 -3 0t-3 -2l1 -12q0 -2 -2 -4t-4 -1q-5 0 -7 1q-8 5 -9 7q-4 5 -9 5q-4 0 -8 -6q-20 -26 -20 -54q0 -4 2 -16q5 -27 15 -49l27 -63q14 -32 18 -48q5 -23 5 -40q0 -42 -24 -85
q-11 -18 -29 -29q-11 -6 -11 -17l-3 -47l-2 -12q0 -2 -5 -4q-7 0 -12.5 3.5z" />
    <glyph glyph-name="Euro" unicode="&#x20ac;" horiz-adv-x="281" 
d="M68 111q-12 17 -17 41q-4 22 -5 33q-2 14 -12 19l-3 3q-1 1 -0.5 3t1.5 3q7 5 8 5q5 3 5 8q4 33 7 46q0 10 -5 12q-2 1 -5 3t-4 5q0 4 1 4q6 3 11 3q9 4 11 9q1 5 5 13q6 16 20 48q12 20 24 35q29 32 59 28q32 -2 47 -7q12 -3 21 -10q18 -10 13 -30q-4 -21 -11 -33
q-5 -7 -13 -4q-5 2 -5 7q0 10 1 16q3 14 2 26q0 10 -11 12q-4 1 -13 1q-28 0 -48 -24q-21 -26 -35 -63l-1 -4q0 -3 3 -5t7 -1q13 3 46 7q4 1 10 1q11 0 20 -4l6 -3q5 -4 3 -6q-3 -3 -4 -3q-16 -2 -23 -4l-65 -11l-9 -3q-6 -2 -8 -8q-8 -28 -8 -44q0 -2 2 -4t5 -2q7 0 11 1
q16 3 49 3h24q9 0 15 -6q2 -3 -1 -6q-11 -5 -28 -5q-15 0 -33 -2t-25 -3l-12 -2q-6 -2 -8.5 -4.5t-2.5 -8.5q-2 -40 11 -72q9 -18 14 -24q7 -7 17 -6q15 3 25 12q16 12 27 29q21 33 31 63q4 12 7 18q1 4 5.5 6t9.5 0q11 -4 10 -15q0 -13 -3 -25q-6 -26 -30 -74q-1 -2 -3 -4
t-4 -6q-23 -31 -60 -31q-51 0 -79 44z" />
    <glyph glyph-name="plus" unicode="+" 
d="M167 252q0 -9 -7 -10q-8 -4 -13 -4q-11 -2 -31 -4v-5v-28q0 -17 -17 -17q-9 0 -10 7q-4 8 -4 13q-1 5 -2 12t-1 17q-18 0 -36 3q-16 3 -16 19q0 2 1.5 4.5t3.5 3.5h4l41 3q0 20 3 39q3 16 19 16q2 0 4.5 -1.5t3.5 -3.5v-4l3 -44l9 1h28q17 0 17 -17z" />
    <glyph glyph-name="minus" unicode="&#x2212;" 
d="M30 255q0 2 1.5 4.5t3.5 3.5h4l83 6h28q17 0 17 -17q0 -9 -7 -10q-8 -4 -13 -4q-33 -5 -60 -5q-20 0 -41 3q-16 3 -16 19z" />
    <glyph glyph-name="multiply" unicode="&#xd7;" horiz-adv-x="168" 
d="M138 216q0 -6 -6 -12t-12 -2q-9 2 -12 6q-2 1 -26 20l-3 -4l-20 -20q-7 -7 -12 -7q-3 0 -12 7q-6 6 -2 12q5 10 7 12l18 23q-14 14 -23 27q-5 7 -5 12q0 6 7 13q2 2 4.5 2.5t4.5 -0.5l3 -3l31 -27q15 15 30 26q5 4 11 4q7 0 13 -7q3 -2 3 -9q-1 0 -2 -1t-1 -2l-29 -33
l7 -5l20 -20q6 -6 6 -12z" />
    <glyph glyph-name="divide" unicode="&#xf7;" 
d="M85 304q-17 9 -14 27q1 20 12 38q4 7 11 6q17 -1 34 -9q14 -6 15 -24q-2 -20 -15 -36q-9 -11 -24 -9q-11 2 -19 7zM30 255q0 2 1.5 4.5t3.5 3.5h4l83 6h28q17 0 17 -17q0 -9 -7 -10q-8 -4 -13 -4q-33 -5 -60 -5q-20 0 -41 3q-16 3 -16 19zM63 132q-17 9 -14 27
q1 20 12 38q4 7 11 6q17 -1 34 -9q14 -6 15 -24q-2 -20 -15 -36q-9 -11 -24 -9q-11 2 -19 7z" />
    <glyph glyph-name="equal" unicode="=" 
d="M30 285q0 2 1.5 4.5t3.5 3.5h4l83 6h28q17 0 17 -17q0 -9 -7 -10q-8 -4 -13 -4q-33 -5 -60 -5q-20 0 -41 3q-16 3 -16 19zM30 225q0 2 1.5 4.5t3.5 3.5h4l83 6h28q17 0 17 -17q0 -9 -7 -10q-8 -4 -13 -4q-33 -5 -60 -5q-20 0 -41 3q-16 3 -16 19z" />
    <glyph glyph-name="greater" unicode="&#x3e;" horiz-adv-x="195" 
d="M46 127.5l-1 0.5q-4 0 -6.5 2.5t-2.5 6.5v2q0 5 5 8l10 5q10 1 18 11q27 30 28 31q5 5 12 11.5t7 10.5q0 3 -4.5 9t-11.5 15l-7 9q-33 45 -53 83l-9 20l-1 4q0 7 7 12q6 3 11 3q7 0 13 -6q7 -7 13 -16l19 -26q36 -48 51 -74l3 -4q3 -4 9 -6q9 -3 9 -7q0 -2 -4 -8
q-10 -12 -12 -14l-26 -27l-39 -37q-12 -13 -23 -16l-12 -3q-2 0 -3 0.5z" />
    <glyph glyph-name="less" unicode="&#x3c;" horiz-adv-x="195" 
d="M134 130q-10 3 -23 16l-39 37l-26 27q-2 2 -12 14q-4 6 -4 8q0 4 9 7q6 2 9 6l3 4q15 26 51 74l19 26q6 9 13 16q6 6 13 6q5 0 11 -3q9 -7 6 -16l-9 -20q-20 -38 -53 -83l-7 -9q-7 -9 -11.5 -15t-4.5 -9q0 -4 7 -10.5t12 -11.5q1 -1 28 -31q8 -10 18 -11l10 -5
q3 -1 4.5 -4.5t0.5 -5.5q0 -4 -2.5 -6.5t-6.5 -2.5l-1 -0.5t-3 -0.5z" />
    <glyph glyph-name="percent" unicode="%" horiz-adv-x="339" 
d="M179 227q-35 -72 -80 -184l-11 -26q-4 -8 -8 -11q-4 -6 -10 -4q-12 2 -17.5 6.5t-5.5 13.5q0 3 2 11q1 9 7 22q29 83 69 170l75 157q19 44 40 78l5 10q0 4 -4 6q-6 0 -10 1l-41 -6q-17 -2 -51 -8q-2 0 -7 -0.5t-6 -5.5v-1q0 -4 3 -6.5t4 -3.5q18 -17 18 -40q0 -12 -5 -27
q-8 -23 -25 -39q-15 -15 -36 -15q-12 0 -24 5.5t-20 13.5q-11 13 -11 28q2 59 40 89q19 16 44 19q18 2 27 4q56 8 85 10q6 0 10.5 1t7.5 2q10 0 26 2q10 0 17 -7q6 -5 5 -12q0 -2 -3 -11l-9 -20q-14 -31 -17 -38q-15 -31 -26 -56q-38 -86 -58 -128zM120 418q0 11 -7 21
q-6 9 -12 9q-5 0 -11 -8q-19 -25 -23 -68v-6q0 -9 4 -14q1 -1 3 -2t3 -1l4 2q32 20 38 59q1 3 1 8zM309 117q0 -5 -2 -13q-7 -21 -18 -32q-24 -27 -59 -36q-9 -3 -18 -3q-20 0 -41 13q-18 12 -18 32q0 7 1 11q5 27 22 44q13 13 29 12l12 1l-3 8q0 6 5 8l2 1q7 1 20 1
q24 0 42 -9q12 -8 16 -13q10 -13 10 -25zM277 122q0 25 -21 26h-6.5t-7.5 -1q-5 -1 -12.5 -1t-12.5 -1q0 -1 0.5 -3.5t-1.5 -4.5l-6 -7q-15 -13 -20 -38q-2 -6 -2 -16q0 -8 1 -12q3 -13 16 -10q22 4 44 21q12 11 22 27q6 12 6 20z" />
    <glyph glyph-name="at" unicode="@" horiz-adv-x="416" 
d="M101 24q-29 18 -44 48q-6 12 -8 18q-19 54 -19 107q0 56 24 115q16 38 41 74q22 31 54 52q31 20 71 20q11 0 17 -1q33 -6 35 -6q31 -8 60 -31q30 -22 44 -60q12 -32 10 -65q0 -57 -19 -105q-5 -14 -14 -29q-2 -4 -18 -25q-13 -16 -33 -16q-6 0 -16 2q-17 4 -32 19
q-8 9 -9 19q-2 7 -4 21q0 1 -2 2t-4 0l-13 -14q-14 -14 -26 -20q-6 -3 -13 -3q-4 0 -12 2l-9 3q-14 7 -20 17t-4 27l4 18q7 30 24 59q10 15 14 19q12 12 28 12q3 0 13 -2q4 -2 6 -2q4 -1 10.5 -5t11.5 -2t7 8t4 9q5 7 13 5q21 -7 20 -25q0 -12 -4 -40q-6 -51 -7 -79l1 -14
q1 -3 4.5 -4.5t5.5 0.5l10 9q18 19 26 40q23 52 23 106q0 19 -3 38q-3 17 -9 32q-16 44 -65 50q-8 2 -25 2q-16 0 -25 -2q-11 -1 -33 -11q-34 -19 -54 -48q-55 -71 -67 -156q-2 -20 -2 -31q0 -30 8 -62q6 -27 15 -50q9 -22 27 -31t46 -9q27 0 48 9q24 10 39 27l9 10
q4 4 11 1l8 -4q6 -6 3 -13q-11 -24 -29 -36q-36 -23 -71 -23q-7 0 -21 2q-37 7 -61 22zM198 202q18 19 37 57l2 8l-1 6q-2 6 -6.5 8t-9.5 -2q-7 -6 -12 -14q-17 -30 -24 -64q-1 -1 -0.5 -2t0.5 -2l1 -2l4 -1q7 6 9 8z" />
    <glyph glyph-name="ampersand" unicode="&#x26;" horiz-adv-x="341" 
d="M157 -91q-13 0 -21 11q-2 6 -2 9q-1 10 -1 29v14h1v40q-2 7 -7 8q-6 3 -10.5 4t-7.5 2q-27 10 -44 26q-35 32 -35 74q0 12 3 24q11 59 62 103q23 21 49 30l7 3q2 1 2.5 4t-1.5 4l-15 12q-15 13 -20 22q-10 16 -11 33q-1 4 -1 13q0 32 17 61t42 44l25 14q7 3 8 11l3 51
q0 16 4 28q0 5 3 6q2 3 6 3q16 -3 18 -19v-9q0 -8 -2 -26q-2 -20 -2 -30v-2q0 -6 8 -8q17 -4 37 -14q28 -16 37 -47q2 -10 2 -13l-1 -10q-6 -24 -20 -48l-6 -6q-2 -2 -6 -2q-8 0 -11 5q0 1 -0.5 2.5t0.5 2.5q2 6 5 13q8 14 11 36q1 4 1 11q0 19 -15 37q-7 7 -18 9
q-17 0 -25 -4l-13 -6q-63 -35 -66 -109q0 -10 3 -19q3 -19 20 -28q5 -2 12 -5.5t16 -7.5q18 -8 26 -14q7 -5 9 -11q0 -6 -5 -8q-7 0 -11 -1q-41 -1 -74 -27q-49 -39 -64 -94q-5 -17 -5 -32q0 -11 1 -16q2 -12 11 -26q11 -14 27 -18q12 -2 16 -2q7 0 9 2q10 8 20 4q2 -1 7 -1
q7 0 13 3q25 11 35 34q15 34 12 73v9q-1 1 1 3t3 1q13 -2 21 -10.5t9 -20.5q1 -6 1 -17q0 -27 -7 -51q-9 -32 -39 -47q-19 -8 -34 -11q-8 -1 -10 -11q-6 -60 -5 -90q0 -3 -1 -4l-4 -3h-3z" />
    <glyph glyph-name="trademark" unicode="&#x2122;" horiz-adv-x="711" 
d="M99 3.5q-3 2.5 -5 5.5q-5 13 -5 25q0 5 2 19l6 31q7 47 16 84l30 131q12 53 39 145q8 29 22 89l2 9q0 2 -1.5 3.5t-3.5 1.5q-3 0 -8 -1t-8 -2q-18 -5 -60 -11q-6 -1 -19 -1q-31 0 -68 15q-17 7 -25 17q-13 12 -13 29q0 6 1 9q4 18 11 28q7 11 18 6l7 -3q4 -3 4 -8
q0 -6 -2 -18q-2 -14 -2 -19q0 -12 6.5 -20t18.5 -9q10 -2 14 -2h20q22 0 55 7l57 15q12 4 15 13q0 2 1 2q4 12 13 12q5 0 11 -3l6 -5q5 -5 15 -3l50 14l31 9q18 6 27 8q45 13 72 13q20 0 30 -1q22 -3 40 -19q7 -7 7 -14q0 -4 -3 -9l-9 -14q-4 -4 -10 -4t-11 3t-7 8
q-1 2 -0.5 3.5t0.5 3.5l3 11q0 3 -4 5q-3 1 -9 1q-37 -2 -61 -9l-104 -27q-25 -7 -43 -11q-14 -3 -15 -16l-7 -41q-5 -33 -21 -89q-25 -82 -52 -208l-21 -94q-5 -23 -13 -69q-1 -3 -3.5 -15t-8.5 -21q-8 -10 -22 -12q-3 0 -6 2.5zM551 43q-13 28 -13 52v26q0 49 17 128
q21 98 65 221q14 39 23 70l10 31q6 16 5 25l-1 2h-2q-6 -4 -7 -6q-7 -9 -19 -27q-21 -34 -45 -83q-29 -61 -66 -150q-13 -32 -52 -114l-8 -14q-8 -11 -21 -8q-23 7 -26 30q-1 6 -1 18q0 20 4 36q8 46 23 103l10 41q2 5 0 9q0 2 -1 2h-2l-7 -7l-24 -40q-45 -96 -61 -157
l-37 -134q-1 -9 -6 -18q-2 -5 -7 -5q-26 -5 -34 21q-2 4 -2 14q0 28 1 42q2 24 8 64l4 32q6 61 23 127l38 148q8 28 16 42q2 6 8 6h2q8 0 13.5 -6t4.5 -13l-3 -11q-22 -113 -43 -200q-11 -40 -18 -100q-1 -6 -3 -16.5t-1 -18.5l0.5 -1t0.5 0q3 0 4 1l3 8l3 12q14 50 33 95
l23 55q14 34 37 70q10 14 16 21t16 7q20 0 29 -21q3 -9 3 -18q0 -8 -1 -12l-15 -81q-4 -24 -14 -72q-1 -2 -0.5 -3.5t0.5 -3.5l2 -1h1t1 1l7 9l12 25q7 13 19 39l34 80q16 37 34 76t36 70q17 31 34 53q7 9 18 19q5 5 11 5q4 0 10 -4q16 -10 18 -29l-1 -21q-4 -32 -20 -87
q-20 -69 -37 -122q-30 -98 -48 -199q-7 -45 -7 -98q2 -23 9 -39q3 -8 13 -5q10 6 13 10q23 25 33 46l18 35l9 14q2 3 9 3q3 0 5.5 -2t1.5 -5l-2 -5l-9 -20l-13 -29q-9 -18 -36 -52q-11 -14 -29 -14q-37 0 -49 28z" />
    <glyph glyph-name="degree" unicode="&#xb0;" horiz-adv-x="181" 
d="M46 644q-16 15 -16 33q0 10 2 16q10 34 42 54q9 6 17 6q10 0 18 -7q7 -6 23 -16l5 -4q17 -14 14 -34q-2 -21 -6 -31q-7 -17 -20 -26.5t-30 -9.5q-11 0 -16 2q-19 5 -33 17zM111 671q7 13 9 36v5q-2 9 -10 12l-4 1q-2 1 -6 1q-5 0 -9 -4q-20 -20 -26 -49v-5q0 -7 1 -11
t4.5 -6.5t7.5 -1.5q22 1 33 22z" />
    <glyph glyph-name="bar" unicode="|" horiz-adv-x="120" 
d="M90 429q0 -84 -1 -127l-1 -45q-2 -64 -2 -96l-2 -53l-5 -111q0 -27 -4 -83q0 -6 -6 -39q-1 -10 -13 -13q-10 0 -14 1q-12 1 -12 12v19l4 94q2 48 2 71l1 35l2 52l3 115q2 50 2 75l1 38q2 36 2 56l1 83q0 27 -2 87q2 14 2 22q3 12 17 15h2q3 0 5.5 -2t3.5 -4q4 -18 5 -27
l8 -93h-0.5t-0.5 1q2 -20 2 -31v-52z" />
    <glyph glyph-name="asciicircum" unicode="^" horiz-adv-x="220" 
d="M156 637q-14 32 -18 49l-5 28l-3 8q-1 2 -3 2.5t-3 -0.5q-10 -7 -11 -9l-42 -41q-12 -12 -19 -17q-3 -3 -8 -3q-7 0 -11 4q-5 5 -2 8q8 12 13 17l56 60l24 25q8 8 18 3q20 -8 24 -26q13 -65 22 -106l2 -12v-4q0 -3 -2.5 -5.5t-5.5 -1.5q-19 5 -26 21z" />
  </font>
</defs>
</svg>
